<mxfile host="app.diagrams.net" modified="2023-11-17T16:06:44.009Z" agent="Mozilla/5.0 (Macintosh; Intel Mac OS X 10_15_7) AppleWebKit/537.36 (KHTML, like Gecko) Chrome/119.0.0.0 Safari/537.36" etag="cYYq92fF1nBQSBwutsXQ" version="22.1.3" type="google">
  <diagram id="C5RBs43oDa-KdzZeNtuy" name="Page-1">
    <mxGraphModel grid="1" page="1" gridSize="10" guides="1" tooltips="1" connect="1" arrows="1" fold="1" pageScale="1" pageWidth="827" pageHeight="1169" math="0" shadow="0">
      <root>
        <mxCell id="WIyWlLk6GJQsqaUBKTNV-0" />
        <mxCell id="WIyWlLk6GJQsqaUBKTNV-1" parent="WIyWlLk6GJQsqaUBKTNV-0" />
        <mxCell id="qdfca_HPiDvRjvZuORhi-17" style="edgeStyle=orthogonalEdgeStyle;rounded=0;orthogonalLoop=1;jettySize=auto;html=1;exitX=0.5;exitY=1;exitDx=0;exitDy=0;entryX=0.5;entryY=0;entryDx=0;entryDy=0;" edge="1" parent="WIyWlLk6GJQsqaUBKTNV-1" source="qdfca_HPiDvRjvZuORhi-61" target="qdfca_HPiDvRjvZuORhi-12">
          <mxGeometry relative="1" as="geometry">
            <mxPoint x="721" y="199.9999999999999" as="sourcePoint" />
          </mxGeometry>
        </mxCell>
        <mxCell id="qdfca_HPiDvRjvZuORhi-21" style="edgeStyle=orthogonalEdgeStyle;rounded=0;orthogonalLoop=1;jettySize=auto;html=1;exitX=1;exitY=0.5;exitDx=0;exitDy=0;entryX=0;entryY=0.5;entryDx=0;entryDy=0;" edge="1" parent="WIyWlLk6GJQsqaUBKTNV-1" source="qdfca_HPiDvRjvZuORhi-61" target="qdfca_HPiDvRjvZuORhi-16">
          <mxGeometry relative="1" as="geometry">
            <mxPoint x="811" y="179.9999999999999" as="sourcePoint" />
          </mxGeometry>
        </mxCell>
        <mxCell id="qdfca_HPiDvRjvZuORhi-95" style="edgeStyle=orthogonalEdgeStyle;rounded=0;orthogonalLoop=1;jettySize=auto;html=1;exitX=0.25;exitY=1;exitDx=0;exitDy=0;entryX=0.5;entryY=0;entryDx=0;entryDy=0;" edge="1" parent="WIyWlLk6GJQsqaUBKTNV-1" source="qdfca_HPiDvRjvZuORhi-0" target="qdfca_HPiDvRjvZuORhi-96">
          <mxGeometry relative="1" as="geometry">
            <mxPoint x="347" y="435" as="targetPoint" />
          </mxGeometry>
        </mxCell>
        <mxCell id="qdfca_HPiDvRjvZuORhi-0" value="FAQ Doc P8" style="rounded=1;whiteSpace=wrap;html=1;fontSize=12;glass=0;strokeWidth=1;shadow=0;fillColor=#33FFFF;" vertex="1" parent="WIyWlLk6GJQsqaUBKTNV-1">
          <mxGeometry x="282" y="370" width="110" height="40" as="geometry" />
        </mxCell>
        <mxCell id="qdfca_HPiDvRjvZuORhi-112" style="edgeStyle=orthogonalEdgeStyle;rounded=0;orthogonalLoop=1;jettySize=auto;html=1;exitX=0.5;exitY=1;exitDx=0;exitDy=0;entryX=0.5;entryY=0;entryDx=0;entryDy=0;" edge="1" parent="WIyWlLk6GJQsqaUBKTNV-1" source="qdfca_HPiDvRjvZuORhi-1" target="qdfca_HPiDvRjvZuORhi-120">
          <mxGeometry relative="1" as="geometry">
            <mxPoint x="-490" y="500" as="targetPoint" />
            <Array as="points">
              <mxPoint x="-435" y="360" />
              <mxPoint x="-440" y="360" />
              <mxPoint x="-440" y="393" />
              <mxPoint x="-460" y="393" />
              <mxPoint x="-460" y="520" />
              <mxPoint x="-614" y="520" />
            </Array>
          </mxGeometry>
        </mxCell>
        <mxCell id="qdfca_HPiDvRjvZuORhi-132" style="edgeStyle=orthogonalEdgeStyle;rounded=0;orthogonalLoop=1;jettySize=auto;html=1;exitX=1;exitY=1;exitDx=0;exitDy=0;entryX=0.5;entryY=0;entryDx=0;entryDy=0;" edge="1" parent="WIyWlLk6GJQsqaUBKTNV-1" source="qdfca_HPiDvRjvZuORhi-1" target="qdfca_HPiDvRjvZuORhi-133">
          <mxGeometry relative="1" as="geometry">
            <mxPoint x="-157" y="470" as="targetPoint" />
            <Array as="points">
              <mxPoint x="-380" y="180" />
              <mxPoint x="-380" y="360" />
              <mxPoint x="-370" y="360" />
              <mxPoint x="-370" y="420" />
              <mxPoint x="-320" y="420" />
              <mxPoint x="-320" y="650" />
              <mxPoint x="-240" y="650" />
            </Array>
          </mxGeometry>
        </mxCell>
        <mxCell id="qdfca_HPiDvRjvZuORhi-135" style="edgeStyle=orthogonalEdgeStyle;rounded=0;orthogonalLoop=1;jettySize=auto;html=1;exitX=1;exitY=0.5;exitDx=0;exitDy=0;entryX=0.5;entryY=0;entryDx=0;entryDy=0;" edge="1" parent="WIyWlLk6GJQsqaUBKTNV-1" source="qdfca_HPiDvRjvZuORhi-1" target="qdfca_HPiDvRjvZuORhi-181">
          <mxGeometry relative="1" as="geometry">
            <mxPoint x="-20" y="430" as="targetPoint" />
          </mxGeometry>
        </mxCell>
        <mxCell id="qdfca_HPiDvRjvZuORhi-183" style="edgeStyle=orthogonalEdgeStyle;rounded=0;orthogonalLoop=1;jettySize=auto;html=1;exitX=1;exitY=0.25;exitDx=0;exitDy=0;entryX=0.5;entryY=0;entryDx=0;entryDy=0;" edge="1" parent="WIyWlLk6GJQsqaUBKTNV-1" source="qdfca_HPiDvRjvZuORhi-1" target="qdfca_HPiDvRjvZuORhi-134">
          <mxGeometry relative="1" as="geometry">
            <mxPoint x="150" y="650" as="targetPoint" />
            <Array as="points">
              <mxPoint x="180" y="150" />
              <mxPoint x="180" y="650" />
              <mxPoint x="130" y="650" />
            </Array>
          </mxGeometry>
        </mxCell>
        <mxCell id="qdfca_HPiDvRjvZuORhi-194" style="edgeStyle=orthogonalEdgeStyle;rounded=0;orthogonalLoop=1;jettySize=auto;html=1;exitX=1;exitY=0.75;exitDx=0;exitDy=0;entryX=0.5;entryY=0;entryDx=0;entryDy=0;" edge="1" parent="WIyWlLk6GJQsqaUBKTNV-1" source="qdfca_HPiDvRjvZuORhi-1" target="-Z4l_nvjU3ZCaJv-4ttp-63">
          <mxGeometry relative="1" as="geometry">
            <mxPoint x="-270" y="240" as="targetPoint" />
          </mxGeometry>
        </mxCell>
        <mxCell id="qdfca_HPiDvRjvZuORhi-198" style="edgeStyle=orthogonalEdgeStyle;rounded=0;orthogonalLoop=1;jettySize=auto;html=1;exitX=0.25;exitY=1;exitDx=0;exitDy=0;entryX=0.5;entryY=0;entryDx=0;entryDy=0;" edge="1" parent="WIyWlLk6GJQsqaUBKTNV-1" source="qdfca_HPiDvRjvZuORhi-1" target="qdfca_HPiDvRjvZuORhi-113">
          <mxGeometry relative="1" as="geometry">
            <Array as="points">
              <mxPoint x="-462" y="180" />
              <mxPoint x="-462" y="240" />
              <mxPoint x="-480" y="240" />
              <mxPoint x="-480" y="470" />
              <mxPoint x="-767" y="470" />
            </Array>
          </mxGeometry>
        </mxCell>
        <mxCell id="qdfca_HPiDvRjvZuORhi-199" style="edgeStyle=orthogonalEdgeStyle;rounded=0;orthogonalLoop=1;jettySize=auto;html=1;exitX=0;exitY=0.5;exitDx=0;exitDy=0;entryX=0.5;entryY=0;entryDx=0;entryDy=0;" edge="1" parent="WIyWlLk6GJQsqaUBKTNV-1" source="qdfca_HPiDvRjvZuORhi-1" target="qdfca_HPiDvRjvZuORhi-200">
          <mxGeometry relative="1" as="geometry">
            <mxPoint x="-718.4999999999998" y="249.9999999999999" as="targetPoint" />
            <mxPoint x="-509.4999999999998" y="199.9999999999999" as="sourcePoint" />
          </mxGeometry>
        </mxCell>
        <mxCell id="qdfca_HPiDvRjvZuORhi-207" style="edgeStyle=orthogonalEdgeStyle;rounded=0;orthogonalLoop=1;jettySize=auto;html=1;exitX=0;exitY=0.75;exitDx=0;exitDy=0;entryX=0.5;entryY=0;entryDx=0;entryDy=0;" edge="1" parent="WIyWlLk6GJQsqaUBKTNV-1" source="qdfca_HPiDvRjvZuORhi-1" target="qdfca_HPiDvRjvZuORhi-206">
          <mxGeometry relative="1" as="geometry" />
        </mxCell>
        <mxCell id="zPntRhr0dhbVLGfu8nBC-1" style="edgeStyle=orthogonalEdgeStyle;rounded=0;orthogonalLoop=1;jettySize=auto;html=1;exitX=0.5;exitY=1;exitDx=0;exitDy=0;entryX=0.5;entryY=0;entryDx=0;entryDy=0;" edge="1" parent="WIyWlLk6GJQsqaUBKTNV-1" source="qdfca_HPiDvRjvZuORhi-1" target="zPntRhr0dhbVLGfu8nBC-2">
          <mxGeometry relative="1" as="geometry">
            <mxPoint x="10" y="270" as="targetPoint" />
          </mxGeometry>
        </mxCell>
        <mxCell id="zPntRhr0dhbVLGfu8nBC-29" style="edgeStyle=orthogonalEdgeStyle;rounded=0;orthogonalLoop=1;jettySize=auto;html=1;exitX=0.75;exitY=1;exitDx=0;exitDy=0;entryX=0.5;entryY=0;entryDx=0;entryDy=0;" edge="1" parent="WIyWlLk6GJQsqaUBKTNV-1" source="qdfca_HPiDvRjvZuORhi-1">
          <mxGeometry relative="1" as="geometry">
            <Array as="points">
              <mxPoint x="-398" y="570" />
            </Array>
            <mxPoint x="-390" y="570" as="targetPoint" />
          </mxGeometry>
        </mxCell>
        <mxCell id="qdfca_HPiDvRjvZuORhi-1" value="Fiança/Fiances" style="rounded=1;whiteSpace=wrap;html=1;fontSize=12;glass=0;strokeWidth=1;shadow=0;fillColor=#99FF99;" vertex="1" parent="WIyWlLk6GJQsqaUBKTNV-1">
          <mxGeometry x="-480" y="140" width="110" height="40" as="geometry" />
        </mxCell>
        <mxCell id="qdfca_HPiDvRjvZuORhi-45" style="edgeStyle=orthogonalEdgeStyle;rounded=0;orthogonalLoop=1;jettySize=auto;html=1;exitX=0.5;exitY=1;exitDx=0;exitDy=0;entryX=0.5;entryY=0;entryDx=0;entryDy=0;" edge="1" parent="WIyWlLk6GJQsqaUBKTNV-1" source="qdfca_HPiDvRjvZuORhi-2" target="qdfca_HPiDvRjvZuORhi-70">
          <mxGeometry relative="1" as="geometry">
            <mxPoint x="1400" y="460" as="targetPoint" />
          </mxGeometry>
        </mxCell>
        <mxCell id="qdfca_HPiDvRjvZuORhi-2" value="FAQ Doc P16" style="rounded=1;whiteSpace=wrap;html=1;fontSize=12;glass=0;strokeWidth=1;shadow=0;fillColor=#33FFFF;" vertex="1" parent="WIyWlLk6GJQsqaUBKTNV-1">
          <mxGeometry x="1339.5" y="405" width="120" height="40" as="geometry" />
        </mxCell>
        <mxCell id="qdfca_HPiDvRjvZuORhi-3" value="&lt;div style=&quot;&quot;&gt;&lt;span style=&quot;background-color: initial;&quot;&gt;COMENÇAMENT&lt;/span&gt;&lt;/div&gt;" style="rounded=0;whiteSpace=wrap;html=1;align=center;" vertex="1" parent="WIyWlLk6GJQsqaUBKTNV-1">
          <mxGeometry x="676" y="20" width="150" height="60" as="geometry" />
        </mxCell>
        <mxCell id="qdfca_HPiDvRjvZuORhi-6" style="edgeStyle=orthogonalEdgeStyle;rounded=0;orthogonalLoop=1;jettySize=auto;html=1;exitX=0.5;exitY=1;exitDx=0;exitDy=0;entryX=0.5;entryY=0;entryDx=0;entryDy=0;" edge="1" parent="WIyWlLk6GJQsqaUBKTNV-1" source="qdfca_HPiDvRjvZuORhi-3" target="qdfca_HPiDvRjvZuORhi-61">
          <mxGeometry relative="1" as="geometry">
            <mxPoint x="760.5999999999999" y="159.9999999999999" as="targetPoint" />
          </mxGeometry>
        </mxCell>
        <mxCell id="qdfca_HPiDvRjvZuORhi-24" style="edgeStyle=orthogonalEdgeStyle;rounded=0;orthogonalLoop=1;jettySize=auto;html=1;exitX=0.5;exitY=1;exitDx=0;exitDy=0;entryX=0.5;entryY=0;entryDx=0;entryDy=0;" edge="1" parent="WIyWlLk6GJQsqaUBKTNV-1" source="qdfca_HPiDvRjvZuORhi-7" target="qdfca_HPiDvRjvZuORhi-23">
          <mxGeometry relative="1" as="geometry" />
        </mxCell>
        <mxCell id="qdfca_HPiDvRjvZuORhi-7" value="FALLBACK" style="rounded=1;whiteSpace=wrap;html=1;" vertex="1" parent="WIyWlLk6GJQsqaUBKTNV-1">
          <mxGeometry x="960" y="20" width="120" height="60" as="geometry" />
        </mxCell>
        <mxCell id="qdfca_HPiDvRjvZuORhi-11" value="Hola, soc el teu ajudant personal" style="rounded=1;whiteSpace=wrap;html=1;fillColor=#99FF99;" vertex="1" parent="WIyWlLk6GJQsqaUBKTNV-1">
          <mxGeometry x="691" y="100" width="120" height="30" as="geometry" />
        </mxCell>
        <mxCell id="qdfca_HPiDvRjvZuORhi-18" style="edgeStyle=orthogonalEdgeStyle;rounded=0;orthogonalLoop=1;jettySize=auto;html=1;exitX=0;exitY=0.5;exitDx=0;exitDy=0;entryX=0.5;entryY=0;entryDx=0;entryDy=0;" edge="1" parent="WIyWlLk6GJQsqaUBKTNV-1" source="qdfca_HPiDvRjvZuORhi-12" target="qdfca_HPiDvRjvZuORhi-1">
          <mxGeometry relative="1" as="geometry" />
        </mxCell>
        <mxCell id="qdfca_HPiDvRjvZuORhi-19" style="edgeStyle=orthogonalEdgeStyle;rounded=0;orthogonalLoop=1;jettySize=auto;html=1;exitX=0.5;exitY=1;exitDx=0;exitDy=0;entryX=0.5;entryY=0;entryDx=0;entryDy=0;" edge="1" parent="WIyWlLk6GJQsqaUBKTNV-1" source="-Z4l_nvjU3ZCaJv-4ttp-53" target="qdfca_HPiDvRjvZuORhi-0">
          <mxGeometry relative="1" as="geometry">
            <Array as="points">
              <mxPoint x="467" y="370" />
              <mxPoint x="410" y="370" />
              <mxPoint x="410" y="350" />
              <mxPoint x="337" y="350" />
            </Array>
          </mxGeometry>
        </mxCell>
        <mxCell id="qdfca_HPiDvRjvZuORhi-40" style="edgeStyle=orthogonalEdgeStyle;rounded=0;orthogonalLoop=1;jettySize=auto;html=1;exitX=1;exitY=1;exitDx=0;exitDy=0;entryX=0.5;entryY=0;entryDx=0;entryDy=0;" edge="1" parent="WIyWlLk6GJQsqaUBKTNV-1" source="qdfca_HPiDvRjvZuORhi-12" target="qdfca_HPiDvRjvZuORhi-13">
          <mxGeometry relative="1" as="geometry" />
        </mxCell>
        <mxCell id="qdfca_HPiDvRjvZuORhi-44" style="edgeStyle=orthogonalEdgeStyle;rounded=0;orthogonalLoop=1;jettySize=auto;html=1;exitX=0.5;exitY=1;exitDx=0;exitDy=0;entryX=0.5;entryY=0;entryDx=0;entryDy=0;" edge="1" parent="WIyWlLk6GJQsqaUBKTNV-1" source="-Z4l_nvjU3ZCaJv-4ttp-55" target="qdfca_HPiDvRjvZuORhi-2">
          <mxGeometry relative="1" as="geometry" />
        </mxCell>
        <mxCell id="-Z4l_nvjU3ZCaJv-4ttp-61" style="edgeStyle=orthogonalEdgeStyle;rounded=0;orthogonalLoop=1;jettySize=auto;html=1;exitX=0.5;exitY=1;exitDx=0;exitDy=0;entryX=0.5;entryY=0;entryDx=0;entryDy=0;" edge="1" parent="WIyWlLk6GJQsqaUBKTNV-1" source="qdfca_HPiDvRjvZuORhi-12" target="-Z4l_nvjU3ZCaJv-4ttp-60">
          <mxGeometry relative="1" as="geometry" />
        </mxCell>
        <mxCell id="qdfca_HPiDvRjvZuORhi-12" value="A" style="rhombus;whiteSpace=wrap;html=1;fillColor=#94C2FF;" vertex="1" parent="WIyWlLk6GJQsqaUBKTNV-1">
          <mxGeometry x="676" y="220" width="80" height="80" as="geometry" />
        </mxCell>
        <mxCell id="qdfca_HPiDvRjvZuORhi-47" style="edgeStyle=orthogonalEdgeStyle;rounded=0;orthogonalLoop=1;jettySize=auto;html=1;entryX=0.5;entryY=0;entryDx=0;entryDy=0;" edge="1" parent="WIyWlLk6GJQsqaUBKTNV-1" target="qdfca_HPiDvRjvZuORhi-49">
          <mxGeometry relative="1" as="geometry">
            <mxPoint x="1090" y="610" as="targetPoint" />
            <mxPoint x="1130" y="550" as="sourcePoint" />
          </mxGeometry>
        </mxCell>
        <mxCell id="qdfca_HPiDvRjvZuORhi-48" style="edgeStyle=orthogonalEdgeStyle;rounded=0;orthogonalLoop=1;jettySize=auto;html=1;entryX=0.5;entryY=0;entryDx=0;entryDy=0;" edge="1" parent="WIyWlLk6GJQsqaUBKTNV-1" target="qdfca_HPiDvRjvZuORhi-53">
          <mxGeometry relative="1" as="geometry">
            <mxPoint x="1330" y="620" as="targetPoint" />
            <mxPoint x="1270" y="540" as="sourcePoint" />
            <Array as="points">
              <mxPoint x="1243" y="550" />
              <mxPoint x="1310" y="550" />
            </Array>
          </mxGeometry>
        </mxCell>
        <mxCell id="qdfca_HPiDvRjvZuORhi-64" style="edgeStyle=orthogonalEdgeStyle;rounded=0;orthogonalLoop=1;jettySize=auto;html=1;exitX=0.5;exitY=1;exitDx=0;exitDy=0;entryX=0.5;entryY=0;entryDx=0;entryDy=0;" edge="1" parent="WIyWlLk6GJQsqaUBKTNV-1" source="qdfca_HPiDvRjvZuORhi-13" target="qdfca_HPiDvRjvZuORhi-60">
          <mxGeometry relative="1" as="geometry" />
        </mxCell>
        <mxCell id="qdfca_HPiDvRjvZuORhi-13" value="Contracte+Fiança/Fiances" style="rounded=1;whiteSpace=wrap;html=1;fontSize=12;glass=0;strokeWidth=1;shadow=0;fillColor=#33FFFF;" vertex="1" parent="WIyWlLk6GJQsqaUBKTNV-1">
          <mxGeometry x="1130" y="450" width="150" height="40" as="geometry" />
        </mxCell>
        <mxCell id="qdfca_HPiDvRjvZuORhi-215" style="edgeStyle=orthogonalEdgeStyle;rounded=0;orthogonalLoop=1;jettySize=auto;html=1;exitX=0.5;exitY=1;exitDx=0;exitDy=0;entryX=0.5;entryY=0;entryDx=0;entryDy=0;" edge="1" parent="WIyWlLk6GJQsqaUBKTNV-1" source="qdfca_HPiDvRjvZuORhi-14" target="qdfca_HPiDvRjvZuORhi-216">
          <mxGeometry relative="1" as="geometry">
            <mxPoint x="950.6923076923076" y="460" as="targetPoint" />
          </mxGeometry>
        </mxCell>
        <mxCell id="-Z4l_nvjU3ZCaJv-4ttp-59" style="edgeStyle=orthogonalEdgeStyle;rounded=0;orthogonalLoop=1;jettySize=auto;html=1;exitX=0.5;exitY=0;exitDx=0;exitDy=0;entryX=0.5;entryY=1;entryDx=0;entryDy=0;" edge="1" parent="WIyWlLk6GJQsqaUBKTNV-1" source="qdfca_HPiDvRjvZuORhi-14" target="-Z4l_nvjU3ZCaJv-4ttp-57">
          <mxGeometry relative="1" as="geometry">
            <Array as="points">
              <mxPoint x="949" y="390" />
              <mxPoint x="864" y="390" />
            </Array>
          </mxGeometry>
        </mxCell>
        <mxCell id="qdfca_HPiDvRjvZuORhi-14" value="FAQ Doc P3" style="rounded=1;whiteSpace=wrap;html=1;fontSize=12;glass=0;strokeWidth=1;shadow=0;fillColor=#33FFFF;" vertex="1" parent="WIyWlLk6GJQsqaUBKTNV-1">
          <mxGeometry x="889.25" y="400" width="120" height="40" as="geometry" />
        </mxCell>
        <mxCell id="qdfca_HPiDvRjvZuORhi-93" style="edgeStyle=orthogonalEdgeStyle;rounded=0;orthogonalLoop=1;jettySize=auto;html=1;exitX=0.5;exitY=1;exitDx=0;exitDy=0;entryX=0.5;entryY=0;entryDx=0;entryDy=0;" edge="1" parent="WIyWlLk6GJQsqaUBKTNV-1" source="qdfca_HPiDvRjvZuORhi-15" target="qdfca_HPiDvRjvZuORhi-94">
          <mxGeometry relative="1" as="geometry">
            <mxPoint x="639.3333333333333" y="420.0000000000002" as="targetPoint" />
          </mxGeometry>
        </mxCell>
        <mxCell id="qdfca_HPiDvRjvZuORhi-15" value="FAQ Doc P4" style="rounded=1;whiteSpace=wrap;html=1;fontSize=12;glass=0;strokeWidth=1;shadow=0;fillColor=#33FFFF;" vertex="1" parent="WIyWlLk6GJQsqaUBKTNV-1">
          <mxGeometry x="625" y="420" width="120" height="50" as="geometry" />
        </mxCell>
        <mxCell id="qdfca_HPiDvRjvZuORhi-22" style="edgeStyle=orthogonalEdgeStyle;rounded=0;orthogonalLoop=1;jettySize=auto;html=1;exitX=0.5;exitY=0;exitDx=0;exitDy=0;entryX=0;entryY=0.5;entryDx=0;entryDy=0;" edge="1" parent="WIyWlLk6GJQsqaUBKTNV-1" source="qdfca_HPiDvRjvZuORhi-16" target="qdfca_HPiDvRjvZuORhi-7">
          <mxGeometry relative="1" as="geometry" />
        </mxCell>
        <mxCell id="qdfca_HPiDvRjvZuORhi-16" value="NA/IA" style="rhombus;whiteSpace=wrap;html=1;fillColor=#FF6666;" vertex="1" parent="WIyWlLk6GJQsqaUBKTNV-1">
          <mxGeometry x="890" y="150" width="80" height="80" as="geometry" />
        </mxCell>
        <mxCell id="qdfca_HPiDvRjvZuORhi-35" style="edgeStyle=orthogonalEdgeStyle;rounded=0;orthogonalLoop=1;jettySize=auto;html=1;exitX=1;exitY=0.5;exitDx=0;exitDy=0;" edge="1" parent="WIyWlLk6GJQsqaUBKTNV-1" source="qdfca_HPiDvRjvZuORhi-36">
          <mxGeometry relative="1" as="geometry">
            <mxPoint x="1270" y="155.33333333333337" as="targetPoint" />
          </mxGeometry>
        </mxCell>
        <mxCell id="qdfca_HPiDvRjvZuORhi-23" value="Dubte no disponible" style="rounded=1;whiteSpace=wrap;html=1;fillColor=#99FF99;" vertex="1" parent="WIyWlLk6GJQsqaUBKTNV-1">
          <mxGeometry x="1030" y="130" width="100" height="50" as="geometry" />
        </mxCell>
        <mxCell id="qdfca_HPiDvRjvZuORhi-42" style="edgeStyle=orthogonalEdgeStyle;rounded=0;orthogonalLoop=1;jettySize=auto;html=1;exitX=0.5;exitY=1;exitDx=0;exitDy=0;entryX=1;entryY=0;entryDx=0;entryDy=0;" edge="1" parent="WIyWlLk6GJQsqaUBKTNV-1" source="qdfca_HPiDvRjvZuORhi-36" target="qdfca_HPiDvRjvZuORhi-12">
          <mxGeometry relative="1" as="geometry">
            <Array as="points">
              <mxPoint x="1225" y="205" />
              <mxPoint x="1013" y="205" />
              <mxPoint x="1013" y="240" />
            </Array>
          </mxGeometry>
        </mxCell>
        <mxCell id="qdfca_HPiDvRjvZuORhi-51" style="edgeStyle=orthogonalEdgeStyle;rounded=0;orthogonalLoop=1;jettySize=auto;html=1;exitX=1;exitY=0.5;exitDx=0;exitDy=0;entryX=0.5;entryY=0;entryDx=0;entryDy=0;" edge="1" parent="WIyWlLk6GJQsqaUBKTNV-1" source="qdfca_HPiDvRjvZuORhi-65" target="qdfca_HPiDvRjvZuORhi-57">
          <mxGeometry relative="1" as="geometry">
            <mxPoint x="1150" y="770" as="targetPoint" />
            <mxPoint x="1100" y="690" as="sourcePoint" />
          </mxGeometry>
        </mxCell>
        <mxCell id="qdfca_HPiDvRjvZuORhi-66" style="edgeStyle=orthogonalEdgeStyle;rounded=0;orthogonalLoop=1;jettySize=auto;html=1;exitX=0.5;exitY=1;exitDx=0;exitDy=0;" edge="1" parent="WIyWlLk6GJQsqaUBKTNV-1" source="qdfca_HPiDvRjvZuORhi-49" target="qdfca_HPiDvRjvZuORhi-65">
          <mxGeometry relative="1" as="geometry" />
        </mxCell>
        <mxCell id="qdfca_HPiDvRjvZuORhi-49" value="FAQ Doc P15" style="rounded=1;whiteSpace=wrap;html=1;fillColor=#33FFFF;strokeColor=#33FFFF;" vertex="1" parent="WIyWlLk6GJQsqaUBKTNV-1">
          <mxGeometry x="1020" y="620" width="100" height="40" as="geometry" />
        </mxCell>
        <mxCell id="qdfca_HPiDvRjvZuORhi-74" style="edgeStyle=orthogonalEdgeStyle;rounded=0;orthogonalLoop=1;jettySize=auto;html=1;exitX=0.5;exitY=1;exitDx=0;exitDy=0;entryX=0.5;entryY=0;entryDx=0;entryDy=0;" edge="1" parent="WIyWlLk6GJQsqaUBKTNV-1" source="qdfca_HPiDvRjvZuORhi-53" target="qdfca_HPiDvRjvZuORhi-75">
          <mxGeometry relative="1" as="geometry">
            <mxPoint x="1419.8571428571431" y="750" as="targetPoint" />
          </mxGeometry>
        </mxCell>
        <mxCell id="qdfca_HPiDvRjvZuORhi-53" value="FAQ Doc P12" style="rounded=1;whiteSpace=wrap;html=1;fillColor=#33FFFF;" vertex="1" parent="WIyWlLk6GJQsqaUBKTNV-1">
          <mxGeometry x="1370" y="670" width="100" height="40" as="geometry" />
        </mxCell>
        <mxCell id="qdfca_HPiDvRjvZuORhi-55" style="edgeStyle=orthogonalEdgeStyle;rounded=0;orthogonalLoop=1;jettySize=auto;html=1;exitX=0.5;exitY=1;exitDx=0;exitDy=0;entryX=0.5;entryY=0;entryDx=0;entryDy=0;" edge="1" parent="WIyWlLk6GJQsqaUBKTNV-1" source="qdfca_HPiDvRjvZuORhi-54" target="qdfca_HPiDvRjvZuORhi-56">
          <mxGeometry relative="1" as="geometry">
            <mxPoint x="1030.3333333333335" y="850" as="targetPoint" />
          </mxGeometry>
        </mxCell>
        <mxCell id="qdfca_HPiDvRjvZuORhi-72" style="edgeStyle=orthogonalEdgeStyle;rounded=0;orthogonalLoop=1;jettySize=auto;html=1;exitX=0.75;exitY=1;exitDx=0;exitDy=0;" edge="1" parent="WIyWlLk6GJQsqaUBKTNV-1" source="qdfca_HPiDvRjvZuORhi-54">
          <mxGeometry relative="1" as="geometry">
            <mxPoint x="1090" y="910" as="targetPoint" />
          </mxGeometry>
        </mxCell>
        <mxCell id="qdfca_HPiDvRjvZuORhi-54" value="Nou Contracte" style="rounded=1;whiteSpace=wrap;html=1;fillColor=#33FFFF;" vertex="1" parent="WIyWlLk6GJQsqaUBKTNV-1">
          <mxGeometry x="919.25" y="790" width="90" height="40" as="geometry" />
        </mxCell>
        <mxCell id="qdfca_HPiDvRjvZuORhi-217" style="edgeStyle=orthogonalEdgeStyle;rounded=0;orthogonalLoop=1;jettySize=auto;html=1;exitX=0;exitY=0.5;exitDx=0;exitDy=0;entryX=1;entryY=0.5;entryDx=0;entryDy=0;" edge="1" parent="WIyWlLk6GJQsqaUBKTNV-1" source="qdfca_HPiDvRjvZuORhi-56" target="qdfca_HPiDvRjvZuORhi-134">
          <mxGeometry relative="1" as="geometry">
            <Array as="points">
              <mxPoint x="865" y="930" />
              <mxPoint x="440" y="930" />
              <mxPoint x="440" y="750" />
              <mxPoint x="190" y="750" />
            </Array>
          </mxGeometry>
        </mxCell>
        <mxCell id="qdfca_HPiDvRjvZuORhi-56" value="Devolució Fiança. (enllaçar al proces adient)" style="rounded=1;whiteSpace=wrap;html=1;fillColor=#99FF99;" vertex="1" parent="WIyWlLk6GJQsqaUBKTNV-1">
          <mxGeometry x="865" y="890" width="105" height="60" as="geometry" />
        </mxCell>
        <mxCell id="qdfca_HPiDvRjvZuORhi-58" style="edgeStyle=orthogonalEdgeStyle;rounded=0;orthogonalLoop=1;jettySize=auto;html=1;exitX=0.5;exitY=1;exitDx=0;exitDy=0;entryX=0.5;entryY=0;entryDx=0;entryDy=0;" edge="1" parent="WIyWlLk6GJQsqaUBKTNV-1" source="qdfca_HPiDvRjvZuORhi-57" target="qdfca_HPiDvRjvZuORhi-67">
          <mxGeometry relative="1" as="geometry">
            <mxPoint x="1150.3333333333335" y="850" as="targetPoint" />
          </mxGeometry>
        </mxCell>
        <mxCell id="qdfca_HPiDvRjvZuORhi-57" value="Mateix Contracte" style="rounded=1;whiteSpace=wrap;html=1;fillColor=#33FFFF;" vertex="1" parent="WIyWlLk6GJQsqaUBKTNV-1">
          <mxGeometry x="1130" y="780" width="80" height="30" as="geometry" />
        </mxCell>
        <mxCell id="qdfca_HPiDvRjvZuORhi-188" style="edgeStyle=orthogonalEdgeStyle;rounded=0;orthogonalLoop=1;jettySize=auto;html=1;exitX=0.75;exitY=1;exitDx=0;exitDy=0;entryX=0.5;entryY=0;entryDx=0;entryDy=0;" edge="1" parent="WIyWlLk6GJQsqaUBKTNV-1" source="qdfca_HPiDvRjvZuORhi-60" target="qdfca_HPiDvRjvZuORhi-184">
          <mxGeometry relative="1" as="geometry" />
        </mxCell>
        <mxCell id="qdfca_HPiDvRjvZuORhi-60" value="Es tracta d&#39;un nou arrendetari o d&#39;un lloguer?" style="rounded=0;whiteSpace=wrap;html=1;fillColor=#99FF99;" vertex="1" parent="WIyWlLk6GJQsqaUBKTNV-1">
          <mxGeometry x="1134.5" y="530" width="145.5" height="50" as="geometry" />
        </mxCell>
        <mxCell id="qdfca_HPiDvRjvZuORhi-61" value="Quin és el teu dubte?" style="rounded=0;whiteSpace=wrap;html=1;fillColor=#99FF99;" vertex="1" parent="WIyWlLk6GJQsqaUBKTNV-1">
          <mxGeometry x="701" y="150" width="100" height="40" as="geometry" />
        </mxCell>
        <mxCell id="qdfca_HPiDvRjvZuORhi-84" style="edgeStyle=orthogonalEdgeStyle;rounded=0;orthogonalLoop=1;jettySize=auto;html=1;exitX=0;exitY=0.5;exitDx=0;exitDy=0;" edge="1" parent="WIyWlLk6GJQsqaUBKTNV-1" source="qdfca_HPiDvRjvZuORhi-65" target="qdfca_HPiDvRjvZuORhi-54">
          <mxGeometry relative="1" as="geometry" />
        </mxCell>
        <mxCell id="qdfca_HPiDvRjvZuORhi-212" style="edgeStyle=orthogonalEdgeStyle;rounded=0;orthogonalLoop=1;jettySize=auto;html=1;exitX=0.5;exitY=1;exitDx=0;exitDy=0;entryX=0.5;entryY=0;entryDx=0;entryDy=0;" edge="1" parent="WIyWlLk6GJQsqaUBKTNV-1" source="qdfca_HPiDvRjvZuORhi-65" target="qdfca_HPiDvRjvZuORhi-210">
          <mxGeometry relative="1" as="geometry" />
        </mxCell>
        <mxCell id="qdfca_HPiDvRjvZuORhi-65" value="Es tracta d&#39;un nou contracte o del mateix?" style="rounded=0;whiteSpace=wrap;html=1;fillColor=#99FF99;" vertex="1" parent="WIyWlLk6GJQsqaUBKTNV-1">
          <mxGeometry x="997.25" y="690" width="145.5" height="50" as="geometry" />
        </mxCell>
        <mxCell id="-Z4l_nvjU3ZCaJv-4ttp-5" style="edgeStyle=orthogonalEdgeStyle;rounded=0;orthogonalLoop=1;jettySize=auto;html=1;exitX=0.5;exitY=1;exitDx=0;exitDy=0;entryX=0.5;entryY=0;entryDx=0;entryDy=0;" edge="1" parent="WIyWlLk6GJQsqaUBKTNV-1" source="qdfca_HPiDvRjvZuORhi-67" target="-Z4l_nvjU3ZCaJv-4ttp-3">
          <mxGeometry relative="1" as="geometry" />
        </mxCell>
        <mxCell id="qdfca_HPiDvRjvZuORhi-67" value="&amp;nbsp;Vosté ha de notificar a Incasòl indicant NC o num registre Fiança al correu:&lt;br style=&quot;border-color: var(--border-color);&quot;&gt;&lt;a style=&quot;border-color: var(--border-color); text-decoration-line: none;&quot; href=&quot;mailto:fiances.ingressos@gencat.cat&quot;&gt;&lt;/a&gt;&amp;nbsp;&lt;span style=&quot;border-color: var(--border-color);&quot; id=&quot;docs-internal-guid-506f6e20-7fff-1e04-ee44-8194f0e4f9f5&quot;&gt;&lt;/span&gt;&lt;br style=&quot;border-color: var(--border-color);&quot;&gt;&amp;nbsp;" style="rounded=0;whiteSpace=wrap;html=1;fillColor=#99FF99;" vertex="1" parent="WIyWlLk6GJQsqaUBKTNV-1">
          <mxGeometry x="1134.5" y="860" width="170" height="80" as="geometry" />
        </mxCell>
        <mxCell id="-Z4l_nvjU3ZCaJv-4ttp-8" style="edgeStyle=orthogonalEdgeStyle;rounded=0;orthogonalLoop=1;jettySize=auto;html=1;exitX=0.5;exitY=1;exitDx=0;exitDy=0;entryX=0.5;entryY=0;entryDx=0;entryDy=0;" edge="1" parent="WIyWlLk6GJQsqaUBKTNV-1" source="qdfca_HPiDvRjvZuORhi-70" target="-Z4l_nvjU3ZCaJv-4ttp-1">
          <mxGeometry relative="1" as="geometry" />
        </mxCell>
        <mxCell id="qdfca_HPiDvRjvZuORhi-70" value="Pregunta freqüent 10" style="rounded=0;whiteSpace=wrap;html=1;fillColor=#99FF99;" vertex="1" parent="WIyWlLk6GJQsqaUBKTNV-1">
          <mxGeometry x="1440" y="470" width="90" height="40" as="geometry" />
        </mxCell>
        <mxCell id="qdfca_HPiDvRjvZuORhi-218" style="edgeStyle=orthogonalEdgeStyle;rounded=0;orthogonalLoop=1;jettySize=auto;html=1;exitX=0;exitY=0.5;exitDx=0;exitDy=0;entryX=1;entryY=0.5;entryDx=0;entryDy=0;" edge="1" parent="WIyWlLk6GJQsqaUBKTNV-1" source="qdfca_HPiDvRjvZuORhi-73" target="qdfca_HPiDvRjvZuORhi-133">
          <mxGeometry relative="1" as="geometry">
            <Array as="points">
              <mxPoint x="1009" y="960" />
              <mxPoint x="380" y="960" />
              <mxPoint x="380" y="770" />
              <mxPoint x="-140" y="770" />
              <mxPoint x="-140" y="730" />
            </Array>
          </mxGeometry>
        </mxCell>
        <mxCell id="qdfca_HPiDvRjvZuORhi-73" value="DIPOSITAR NOVA FIANÇA(enllaçaro)" style="rounded=1;whiteSpace=wrap;html=1;fillColor=#99FF99;" vertex="1" parent="WIyWlLk6GJQsqaUBKTNV-1">
          <mxGeometry x="1009.25" y="900" width="105" height="60" as="geometry" />
        </mxCell>
        <mxCell id="-Z4l_nvjU3ZCaJv-4ttp-9" style="edgeStyle=orthogonalEdgeStyle;rounded=0;orthogonalLoop=1;jettySize=auto;html=1;exitX=0.5;exitY=1;exitDx=0;exitDy=0;entryX=0.5;entryY=0;entryDx=0;entryDy=0;" edge="1" parent="WIyWlLk6GJQsqaUBKTNV-1" source="qdfca_HPiDvRjvZuORhi-75" target="-Z4l_nvjU3ZCaJv-4ttp-4">
          <mxGeometry relative="1" as="geometry" />
        </mxCell>
        <mxCell id="qdfca_HPiDvRjvZuORhi-75" value="Article 36 de la llei d&#39;Arrandaments Urbans" style="rounded=0;whiteSpace=wrap;html=1;fillColor=#99FF99;" vertex="1" parent="WIyWlLk6GJQsqaUBKTNV-1">
          <mxGeometry x="1360" y="800" width="140" height="40" as="geometry" />
        </mxCell>
        <mxCell id="qdfca_HPiDvRjvZuORhi-80" style="edgeStyle=orthogonalEdgeStyle;rounded=0;orthogonalLoop=1;jettySize=auto;html=1;exitX=0.75;exitY=1;exitDx=0;exitDy=0;entryX=0.5;entryY=0;entryDx=0;entryDy=0;" edge="1" parent="WIyWlLk6GJQsqaUBKTNV-1" source="qdfca_HPiDvRjvZuORhi-78" target="qdfca_HPiDvRjvZuORhi-169">
          <mxGeometry relative="1" as="geometry">
            <mxPoint x="1470" y="155" as="targetPoint" />
          </mxGeometry>
        </mxCell>
        <mxCell id="qdfca_HPiDvRjvZuORhi-91" style="edgeStyle=orthogonalEdgeStyle;rounded=0;orthogonalLoop=1;jettySize=auto;html=1;exitX=0.25;exitY=1;exitDx=0;exitDy=0;entryX=0.75;entryY=0;entryDx=0;entryDy=0;" edge="1" parent="WIyWlLk6GJQsqaUBKTNV-1" source="qdfca_HPiDvRjvZuORhi-78" target="MuJXjMNVlSd1NOK1ybPZ-3">
          <mxGeometry relative="1" as="geometry">
            <mxPoint x="1340" y="160" as="targetPoint" />
          </mxGeometry>
        </mxCell>
        <mxCell id="qdfca_HPiDvRjvZuORhi-78" value="El seu dubte ha estat resolt?" style="rounded=0;whiteSpace=wrap;html=1;fillColor=#99FF99;" vertex="1" parent="WIyWlLk6GJQsqaUBKTNV-1">
          <mxGeometry x="1364.5" y="42.5" width="120" height="60" as="geometry" />
        </mxCell>
        <mxCell id="qdfca_HPiDvRjvZuORhi-86" style="edgeStyle=orthogonalEdgeStyle;rounded=0;orthogonalLoop=1;jettySize=auto;html=1;exitX=1;exitY=0.5;exitDx=0;exitDy=0;entryX=0;entryY=0.5;entryDx=0;entryDy=0;" edge="1" parent="WIyWlLk6GJQsqaUBKTNV-1" source="qdfca_HPiDvRjvZuORhi-169" target="qdfca_HPiDvRjvZuORhi-87">
          <mxGeometry relative="1" as="geometry">
            <mxPoint x="1565" y="170.44444444444434" as="targetPoint" />
            <mxPoint x="1505" y="170" as="sourcePoint" />
          </mxGeometry>
        </mxCell>
        <mxCell id="qdfca_HPiDvRjvZuORhi-87" value="Correu de contacte :" style="rounded=0;whiteSpace=wrap;html=1;fillColor=#99FF99;" vertex="1" parent="WIyWlLk6GJQsqaUBKTNV-1">
          <mxGeometry x="1595" y="155" width="80" height="30" as="geometry" />
        </mxCell>
        <mxCell id="qdfca_HPiDvRjvZuORhi-94" value="Enllaç&lt;a style=&quot;text-decoration-line: none;&quot; href=&quot;https://incasol.gencat.cat/ca/2-serveis_i_tramits/Fiances-de-lloguers/altres-serveis/sol.licituds/&quot;&gt;&lt;/a&gt;&lt;span id=&quot;docs-internal-guid-4e90de04-7fff-379e-ba8b-d1285c5c41e4&quot;&gt;&lt;/span&gt;+ S&#39;ha de marcar :&lt;br&gt;Sol·licito una còpia del contracte d&#39;arrendament&lt;br&gt;&lt;span id=&quot;docs-internal-guid-60a7d90c-7fff-87f5-925e-35fa189f2511&quot;&gt;&lt;/span&gt;" style="rounded=0;whiteSpace=wrap;html=1;fillColor=#99FF99;" vertex="1" parent="WIyWlLk6GJQsqaUBKTNV-1">
          <mxGeometry x="602" y="500" width="170" height="70" as="geometry" />
        </mxCell>
        <mxCell id="qdfca_HPiDvRjvZuORhi-97" style="edgeStyle=orthogonalEdgeStyle;rounded=0;orthogonalLoop=1;jettySize=auto;html=1;exitX=0.25;exitY=1;exitDx=0;exitDy=0;entryX=0.5;entryY=0;entryDx=0;entryDy=0;" edge="1" parent="WIyWlLk6GJQsqaUBKTNV-1" source="qdfca_HPiDvRjvZuORhi-96" target="zPntRhr0dhbVLGfu8nBC-25">
          <mxGeometry relative="1" as="geometry">
            <mxPoint x="297.00000000000045" y="545" as="targetPoint" />
          </mxGeometry>
        </mxCell>
        <mxCell id="qdfca_HPiDvRjvZuORhi-100" style="edgeStyle=orthogonalEdgeStyle;rounded=0;orthogonalLoop=1;jettySize=auto;html=1;exitX=0.75;exitY=1;exitDx=0;exitDy=0;entryX=0.5;entryY=0;entryDx=0;entryDy=0;" edge="1" parent="WIyWlLk6GJQsqaUBKTNV-1" source="qdfca_HPiDvRjvZuORhi-96" target="qdfca_HPiDvRjvZuORhi-99">
          <mxGeometry relative="1" as="geometry" />
        </mxCell>
        <mxCell id="qdfca_HPiDvRjvZuORhi-161" style="edgeStyle=orthogonalEdgeStyle;rounded=0;orthogonalLoop=1;jettySize=auto;html=1;exitX=0.5;exitY=1;exitDx=0;exitDy=0;entryX=0.5;entryY=0;entryDx=0;entryDy=0;" edge="1" parent="WIyWlLk6GJQsqaUBKTNV-1" source="qdfca_HPiDvRjvZuORhi-96" target="qdfca_HPiDvRjvZuORhi-160">
          <mxGeometry relative="1" as="geometry" />
        </mxCell>
        <mxCell id="qdfca_HPiDvRjvZuORhi-96" value="Tens el certifictat electrònic?" style="rounded=0;whiteSpace=wrap;html=1;fillColor=#99FF99;" vertex="1" parent="WIyWlLk6GJQsqaUBKTNV-1">
          <mxGeometry x="282" y="445" width="140" height="50" as="geometry" />
        </mxCell>
        <mxCell id="qdfca_HPiDvRjvZuORhi-101" style="edgeStyle=orthogonalEdgeStyle;rounded=0;orthogonalLoop=1;jettySize=auto;html=1;exitX=0.5;exitY=1;exitDx=0;exitDy=0;entryX=0.5;entryY=0;entryDx=0;entryDy=0;" edge="1" parent="WIyWlLk6GJQsqaUBKTNV-1" source="zPntRhr0dhbVLGfu8nBC-25" target="qdfca_HPiDvRjvZuORhi-102">
          <mxGeometry relative="1" as="geometry">
            <mxPoint x="292.0000000000002" y="615" as="targetPoint" />
            <mxPoint x="297.00000000000045" y="575" as="sourcePoint" />
          </mxGeometry>
        </mxCell>
        <mxCell id="qdfca_HPiDvRjvZuORhi-106" style="edgeStyle=orthogonalEdgeStyle;rounded=0;orthogonalLoop=1;jettySize=auto;html=1;exitX=0.25;exitY=1;exitDx=0;exitDy=0;entryX=0.5;entryY=0;entryDx=0;entryDy=0;" edge="1" parent="WIyWlLk6GJQsqaUBKTNV-1" source="qdfca_HPiDvRjvZuORhi-99" target="qdfca_HPiDvRjvZuORhi-107">
          <mxGeometry relative="1" as="geometry">
            <mxPoint x="432" y="615" as="targetPoint" />
          </mxGeometry>
        </mxCell>
        <mxCell id="qdfca_HPiDvRjvZuORhi-108" style="edgeStyle=orthogonalEdgeStyle;rounded=0;orthogonalLoop=1;jettySize=auto;html=1;exitX=0.75;exitY=1;exitDx=0;exitDy=0;entryX=0.5;entryY=0;entryDx=0;entryDy=0;" edge="1" parent="WIyWlLk6GJQsqaUBKTNV-1" source="qdfca_HPiDvRjvZuORhi-99" target="qdfca_HPiDvRjvZuORhi-109">
          <mxGeometry relative="1" as="geometry">
            <mxPoint x="532" y="605" as="targetPoint" />
          </mxGeometry>
        </mxCell>
        <mxCell id="qdfca_HPiDvRjvZuORhi-99" value="NO" style="rounded=1;whiteSpace=wrap;html=1;arcSize=50;fillColor=#33FFFF;" vertex="1" parent="WIyWlLk6GJQsqaUBKTNV-1">
          <mxGeometry x="432" y="545" width="70" height="30" as="geometry" />
        </mxCell>
        <mxCell id="-Z4l_nvjU3ZCaJv-4ttp-17" style="edgeStyle=orthogonalEdgeStyle;rounded=0;orthogonalLoop=1;jettySize=auto;html=1;exitX=0.5;exitY=1;exitDx=0;exitDy=0;entryX=0.5;entryY=0;entryDx=0;entryDy=0;" edge="1" parent="WIyWlLk6GJQsqaUBKTNV-1" source="qdfca_HPiDvRjvZuORhi-102" target="-Z4l_nvjU3ZCaJv-4ttp-10">
          <mxGeometry relative="1" as="geometry" />
        </mxCell>
        <mxCell id="qdfca_HPiDvRjvZuORhi-102" value="Pots realitzar el tràmit si no ets propietari" style="rounded=0;whiteSpace=wrap;html=1;fillColor=#99FF99;" vertex="1" parent="WIyWlLk6GJQsqaUBKTNV-1">
          <mxGeometry x="202" y="615" width="120" height="60" as="geometry" />
        </mxCell>
        <mxCell id="-Z4l_nvjU3ZCaJv-4ttp-16" style="edgeStyle=orthogonalEdgeStyle;rounded=0;orthogonalLoop=1;jettySize=auto;html=1;exitX=0.5;exitY=1;exitDx=0;exitDy=0;entryX=0.5;entryY=0;entryDx=0;entryDy=0;" edge="1" parent="WIyWlLk6GJQsqaUBKTNV-1" source="qdfca_HPiDvRjvZuORhi-107" target="-Z4l_nvjU3ZCaJv-4ttp-11">
          <mxGeometry relative="1" as="geometry" />
        </mxCell>
        <mxCell id="qdfca_HPiDvRjvZuORhi-107" value="Pots fer el tràmit de forma presencial" style="rounded=0;whiteSpace=wrap;html=1;fillColor=#99FF99;" vertex="1" parent="WIyWlLk6GJQsqaUBKTNV-1">
          <mxGeometry x="340" y="630" width="120" height="60" as="geometry" />
        </mxCell>
        <mxCell id="-Z4l_nvjU3ZCaJv-4ttp-15" style="edgeStyle=orthogonalEdgeStyle;rounded=0;orthogonalLoop=1;jettySize=auto;html=1;exitX=0.5;exitY=1;exitDx=0;exitDy=0;entryX=0.5;entryY=0;entryDx=0;entryDy=0;" edge="1" parent="WIyWlLk6GJQsqaUBKTNV-1" source="qdfca_HPiDvRjvZuORhi-109" target="-Z4l_nvjU3ZCaJv-4ttp-12">
          <mxGeometry relative="1" as="geometry" />
        </mxCell>
        <mxCell id="qdfca_HPiDvRjvZuORhi-109" value="Enllaç :https://incasol.gencat.cat/ca/2-serveis_i_tramits/Fiances-de-lloguers/informacio/certificat-i-identificacio-digital/" style="rounded=0;whiteSpace=wrap;html=1;fillColor=#99FF99;" vertex="1" parent="WIyWlLk6GJQsqaUBKTNV-1">
          <mxGeometry x="490" y="630" width="174" height="100" as="geometry" />
        </mxCell>
        <mxCell id="qdfca_HPiDvRjvZuORhi-119" style="edgeStyle=orthogonalEdgeStyle;rounded=0;orthogonalLoop=1;jettySize=auto;html=1;exitX=0.5;exitY=1;exitDx=0;exitDy=0;" edge="1" parent="WIyWlLk6GJQsqaUBKTNV-1" source="qdfca_HPiDvRjvZuORhi-113" target="qdfca_HPiDvRjvZuORhi-117">
          <mxGeometry relative="1" as="geometry">
            <mxPoint x="-790" y="640" as="sourcePoint" />
            <mxPoint x="-790" y="705" as="targetPoint" />
          </mxGeometry>
        </mxCell>
        <mxCell id="qdfca_HPiDvRjvZuORhi-113" value="FAQ Doc P1" style="rounded=0;whiteSpace=wrap;html=1;fillColor=#33FFFF;" vertex="1" parent="WIyWlLk6GJQsqaUBKTNV-1">
          <mxGeometry x="-827" y="580" width="120" height="60" as="geometry" />
        </mxCell>
        <mxCell id="-Z4l_nvjU3ZCaJv-4ttp-26" style="edgeStyle=orthogonalEdgeStyle;rounded=0;orthogonalLoop=1;jettySize=auto;html=1;exitX=0.5;exitY=1;exitDx=0;exitDy=0;entryX=0.5;entryY=0;entryDx=0;entryDy=0;" edge="1" parent="WIyWlLk6GJQsqaUBKTNV-1" source="qdfca_HPiDvRjvZuORhi-117" target="-Z4l_nvjU3ZCaJv-4ttp-23">
          <mxGeometry relative="1" as="geometry" />
        </mxCell>
        <mxCell id="qdfca_HPiDvRjvZuORhi-117" value="Enllaç:&lt;span id=&quot;docs-internal-guid-ae9c90ed-7fff-8ecf-12d3-284f1d028c08&quot;&gt;&lt;/span&gt;&lt;a style=&quot;text-decoration-line: none;&quot; href=&quot;https://fiances.incasol.cat:8443/tramits/Fiances/Default.aspx&quot;&gt;&lt;/a&gt;&lt;span id=&quot;docs-internal-guid-1d71b6fc-7fff-2fdf-c5df-f9504a06951c&quot;&gt;&lt;/span&gt;" style="rounded=0;whiteSpace=wrap;html=1;fillColor=#99FF99;" vertex="1" parent="WIyWlLk6GJQsqaUBKTNV-1">
          <mxGeometry x="-807" y="727.5" width="80" height="30" as="geometry" />
        </mxCell>
        <mxCell id="qdfca_HPiDvRjvZuORhi-124" style="edgeStyle=orthogonalEdgeStyle;rounded=0;orthogonalLoop=1;jettySize=auto;html=1;exitX=0.5;exitY=1;exitDx=0;exitDy=0;entryX=0.5;entryY=0;entryDx=0;entryDy=0;" edge="1" parent="WIyWlLk6GJQsqaUBKTNV-1" source="qdfca_HPiDvRjvZuORhi-120" target="qdfca_HPiDvRjvZuORhi-123">
          <mxGeometry relative="1" as="geometry" />
        </mxCell>
        <mxCell id="qdfca_HPiDvRjvZuORhi-120" value="FAQ Doc P2" style="rounded=0;whiteSpace=wrap;html=1;fillColor=#33FFFF;" vertex="1" parent="WIyWlLk6GJQsqaUBKTNV-1">
          <mxGeometry x="-674" y="570" width="120" height="60" as="geometry" />
        </mxCell>
        <mxCell id="-Z4l_nvjU3ZCaJv-4ttp-27" style="edgeStyle=orthogonalEdgeStyle;rounded=0;orthogonalLoop=1;jettySize=auto;html=1;exitX=0.5;exitY=1;exitDx=0;exitDy=0;entryX=0.5;entryY=0;entryDx=0;entryDy=0;" edge="1" parent="WIyWlLk6GJQsqaUBKTNV-1" source="qdfca_HPiDvRjvZuORhi-123" target="-Z4l_nvjU3ZCaJv-4ttp-25">
          <mxGeometry relative="1" as="geometry" />
        </mxCell>
        <mxCell id="qdfca_HPiDvRjvZuORhi-123" value="Enllaç:&amp;nbsp;&lt;a style=&quot;text-decoration-line: none;&quot; href=&quot;https://fiances.incasol.cat:8443/tramits/Fiances/Default.aspx&quot;&gt;&lt;/a&gt;&lt;span id=&quot;docs-internal-guid-765ef5ce-7fff-bf4f-d999-d572e11df054&quot;&gt;&lt;/span&gt;" style="rounded=0;whiteSpace=wrap;html=1;fillColor=#99FF99;" vertex="1" parent="WIyWlLk6GJQsqaUBKTNV-1">
          <mxGeometry x="-654" y="710" width="80" height="30" as="geometry" />
        </mxCell>
        <mxCell id="qdfca_HPiDvRjvZuORhi-128" style="edgeStyle=orthogonalEdgeStyle;rounded=0;orthogonalLoop=1;jettySize=auto;html=1;exitX=0.5;exitY=1;exitDx=0;exitDy=0;entryX=0.5;entryY=0;entryDx=0;entryDy=0;" edge="1" parent="WIyWlLk6GJQsqaUBKTNV-1" target="qdfca_HPiDvRjvZuORhi-127">
          <mxGeometry relative="1" as="geometry">
            <mxPoint x="-390" y="630" as="sourcePoint" />
          </mxGeometry>
        </mxCell>
        <mxCell id="-Z4l_nvjU3ZCaJv-4ttp-29" style="edgeStyle=orthogonalEdgeStyle;rounded=0;orthogonalLoop=1;jettySize=auto;html=1;exitX=0.5;exitY=1;exitDx=0;exitDy=0;entryX=0.5;entryY=0;entryDx=0;entryDy=0;" edge="1" parent="WIyWlLk6GJQsqaUBKTNV-1" source="qdfca_HPiDvRjvZuORhi-127" target="-Z4l_nvjU3ZCaJv-4ttp-28">
          <mxGeometry relative="1" as="geometry" />
        </mxCell>
        <mxCell id="qdfca_HPiDvRjvZuORhi-127" value="Enllaç:&lt;p dir=&quot;ltr&quot; style=&quot;line-height:1.2;text-align: justify;margin-top:0pt;margin-bottom:12pt;&quot;&gt;&lt;a href=&quot;https://incasol.gencat.cat/ca/2-serveis_i_tramits/Fiances-de-lloguers/altres-serveis/sol.licituds/&quot; style=&quot;text-decoration-line: none;&quot;&gt;&lt;/a&gt;&lt;/p&gt;&lt;div&gt;Apartat Sol·licituds de dades del Registre de fiances&lt;/div&gt;&lt;p&gt;&lt;/p&gt;&lt;span id=&quot;docs-internal-guid-57725154-7fff-af12-90ca-f37db2d1db01&quot;&gt;&lt;/span&gt;" style="rounded=0;whiteSpace=wrap;html=1;fillColor=#99FF99;" vertex="1" parent="WIyWlLk6GJQsqaUBKTNV-1">
          <mxGeometry x="-519" y="695" width="158" height="95" as="geometry" />
        </mxCell>
        <mxCell id="qdfca_HPiDvRjvZuORhi-138" style="edgeStyle=orthogonalEdgeStyle;rounded=0;orthogonalLoop=1;jettySize=auto;html=1;exitX=0;exitY=0.5;exitDx=0;exitDy=0;entryX=0.5;entryY=0;entryDx=0;entryDy=0;" edge="1" parent="WIyWlLk6GJQsqaUBKTNV-1" source="qdfca_HPiDvRjvZuORhi-141" target="qdfca_HPiDvRjvZuORhi-136">
          <mxGeometry relative="1" as="geometry">
            <mxPoint x="-472.99999999999955" y="840" as="sourcePoint" />
          </mxGeometry>
        </mxCell>
        <mxCell id="qdfca_HPiDvRjvZuORhi-139" style="edgeStyle=orthogonalEdgeStyle;rounded=0;orthogonalLoop=1;jettySize=auto;html=1;exitX=1;exitY=0.5;exitDx=0;exitDy=0;entryX=0.5;entryY=0;entryDx=0;entryDy=0;" edge="1" parent="WIyWlLk6GJQsqaUBKTNV-1" source="qdfca_HPiDvRjvZuORhi-141" target="qdfca_HPiDvRjvZuORhi-137">
          <mxGeometry relative="1" as="geometry" />
        </mxCell>
        <mxCell id="qdfca_HPiDvRjvZuORhi-143" style="edgeStyle=orthogonalEdgeStyle;rounded=0;orthogonalLoop=1;jettySize=auto;html=1;exitX=0.5;exitY=1;exitDx=0;exitDy=0;entryX=0.5;entryY=0;entryDx=0;entryDy=0;" edge="1" parent="WIyWlLk6GJQsqaUBKTNV-1" source="qdfca_HPiDvRjvZuORhi-133" target="qdfca_HPiDvRjvZuORhi-141">
          <mxGeometry relative="1" as="geometry" />
        </mxCell>
        <mxCell id="qdfca_HPiDvRjvZuORhi-133" value="FAQ Doc P6 - Dipòsit Fiança" style="rounded=0;whiteSpace=wrap;html=1;fillColor=#33FFFF;" vertex="1" parent="WIyWlLk6GJQsqaUBKTNV-1">
          <mxGeometry x="-300" y="700" width="120" height="60" as="geometry" />
        </mxCell>
        <mxCell id="qdfca_HPiDvRjvZuORhi-150" style="edgeStyle=orthogonalEdgeStyle;rounded=0;orthogonalLoop=1;jettySize=auto;html=1;exitX=0.5;exitY=1;exitDx=0;exitDy=0;entryX=0.5;entryY=0;entryDx=0;entryDy=0;" edge="1" parent="WIyWlLk6GJQsqaUBKTNV-1" source="qdfca_HPiDvRjvZuORhi-134" target="qdfca_HPiDvRjvZuORhi-148">
          <mxGeometry relative="1" as="geometry" />
        </mxCell>
        <mxCell id="qdfca_HPiDvRjvZuORhi-134" value="FAQ Doc P7" style="rounded=0;whiteSpace=wrap;html=1;fillColor=#33FFFF;" vertex="1" parent="WIyWlLk6GJQsqaUBKTNV-1">
          <mxGeometry x="70" y="685" width="120" height="60" as="geometry" />
        </mxCell>
        <mxCell id="qdfca_HPiDvRjvZuORhi-152" style="edgeStyle=orthogonalEdgeStyle;rounded=0;orthogonalLoop=1;jettySize=auto;html=1;exitX=0.5;exitY=1;exitDx=0;exitDy=0;entryX=0.5;entryY=0;entryDx=0;entryDy=0;" edge="1" parent="WIyWlLk6GJQsqaUBKTNV-1" source="qdfca_HPiDvRjvZuORhi-136" target="qdfca_HPiDvRjvZuORhi-153">
          <mxGeometry relative="1" as="geometry">
            <mxPoint x="-369.9999999999998" y="1010" as="targetPoint" />
          </mxGeometry>
        </mxCell>
        <mxCell id="qdfca_HPiDvRjvZuORhi-136" value="Presencial" style="rounded=0;whiteSpace=wrap;html=1;fillColor=#33FFFF;" vertex="1" parent="WIyWlLk6GJQsqaUBKTNV-1">
          <mxGeometry x="-473" y="900" width="120" height="60" as="geometry" />
        </mxCell>
        <mxCell id="qdfca_HPiDvRjvZuORhi-154" style="edgeStyle=orthogonalEdgeStyle;rounded=0;orthogonalLoop=1;jettySize=auto;html=1;exitX=0.5;exitY=1;exitDx=0;exitDy=0;entryX=0.5;entryY=0;entryDx=0;entryDy=0;" edge="1" parent="WIyWlLk6GJQsqaUBKTNV-1" source="qdfca_HPiDvRjvZuORhi-137" target="qdfca_HPiDvRjvZuORhi-155">
          <mxGeometry relative="1" as="geometry">
            <mxPoint x="-149.99999999999977" y="1000" as="targetPoint" />
            <Array as="points" />
          </mxGeometry>
        </mxCell>
        <mxCell id="qdfca_HPiDvRjvZuORhi-137" value="Online" style="rounded=0;whiteSpace=wrap;html=1;fillColor=#33FFFF;" vertex="1" parent="WIyWlLk6GJQsqaUBKTNV-1">
          <mxGeometry x="-210" y="900" width="120" height="60" as="geometry" />
        </mxCell>
        <mxCell id="qdfca_HPiDvRjvZuORhi-157" style="edgeStyle=orthogonalEdgeStyle;rounded=0;orthogonalLoop=1;jettySize=auto;html=1;exitX=0.5;exitY=1;exitDx=0;exitDy=0;entryX=0.5;entryY=0;entryDx=0;entryDy=0;" edge="1" parent="WIyWlLk6GJQsqaUBKTNV-1" source="qdfca_HPiDvRjvZuORhi-141" target="qdfca_HPiDvRjvZuORhi-156">
          <mxGeometry relative="1" as="geometry" />
        </mxCell>
        <mxCell id="qdfca_HPiDvRjvZuORhi-141" value="Pregunta freqüent 2" style="rounded=0;whiteSpace=wrap;html=1;fillColor=#99FF99;" vertex="1" parent="WIyWlLk6GJQsqaUBKTNV-1">
          <mxGeometry x="-300" y="800" width="120" height="60" as="geometry" />
        </mxCell>
        <mxCell id="qdfca_HPiDvRjvZuORhi-144" style="edgeStyle=orthogonalEdgeStyle;rounded=0;orthogonalLoop=1;jettySize=auto;html=1;exitX=0;exitY=0.5;exitDx=0;exitDy=0;entryX=0.5;entryY=0;entryDx=0;entryDy=0;" edge="1" parent="WIyWlLk6GJQsqaUBKTNV-1" source="qdfca_HPiDvRjvZuORhi-148" target="qdfca_HPiDvRjvZuORhi-146">
          <mxGeometry relative="1" as="geometry" />
        </mxCell>
        <mxCell id="qdfca_HPiDvRjvZuORhi-145" style="edgeStyle=orthogonalEdgeStyle;rounded=0;orthogonalLoop=1;jettySize=auto;html=1;exitX=1;exitY=0.5;exitDx=0;exitDy=0;entryX=0.5;entryY=0;entryDx=0;entryDy=0;" edge="1" parent="WIyWlLk6GJQsqaUBKTNV-1" source="qdfca_HPiDvRjvZuORhi-148" target="qdfca_HPiDvRjvZuORhi-147">
          <mxGeometry relative="1" as="geometry" />
        </mxCell>
        <mxCell id="qdfca_HPiDvRjvZuORhi-179" style="edgeStyle=orthogonalEdgeStyle;rounded=0;orthogonalLoop=1;jettySize=auto;html=1;exitX=0.5;exitY=1;exitDx=0;exitDy=0;entryX=0.5;entryY=0;entryDx=0;entryDy=0;" edge="1" parent="WIyWlLk6GJQsqaUBKTNV-1" source="qdfca_HPiDvRjvZuORhi-146" target="qdfca_HPiDvRjvZuORhi-177">
          <mxGeometry relative="1" as="geometry" />
        </mxCell>
        <mxCell id="qdfca_HPiDvRjvZuORhi-146" value="Presencial" style="rounded=0;whiteSpace=wrap;html=1;fillColor=#99FF99;" vertex="1" parent="WIyWlLk6GJQsqaUBKTNV-1">
          <mxGeometry x="-70" y="900" width="120" height="60" as="geometry" />
        </mxCell>
        <mxCell id="qdfca_HPiDvRjvZuORhi-180" style="edgeStyle=orthogonalEdgeStyle;rounded=0;orthogonalLoop=1;jettySize=auto;html=1;exitX=0.5;exitY=1;exitDx=0;exitDy=0;entryX=0.5;entryY=0;entryDx=0;entryDy=0;" edge="1" parent="WIyWlLk6GJQsqaUBKTNV-1" source="qdfca_HPiDvRjvZuORhi-147" target="qdfca_HPiDvRjvZuORhi-178">
          <mxGeometry relative="1" as="geometry" />
        </mxCell>
        <mxCell id="qdfca_HPiDvRjvZuORhi-147" value="Online" style="rounded=0;whiteSpace=wrap;html=1;fillColor=#99FF99;" vertex="1" parent="WIyWlLk6GJQsqaUBKTNV-1">
          <mxGeometry x="190" y="900" width="120" height="60" as="geometry" />
        </mxCell>
        <mxCell id="qdfca_HPiDvRjvZuORhi-165" style="edgeStyle=orthogonalEdgeStyle;rounded=0;orthogonalLoop=1;jettySize=auto;html=1;exitX=0.5;exitY=1;exitDx=0;exitDy=0;entryX=0.5;entryY=0;entryDx=0;entryDy=0;" edge="1" parent="WIyWlLk6GJQsqaUBKTNV-1" source="qdfca_HPiDvRjvZuORhi-148" target="qdfca_HPiDvRjvZuORhi-164">
          <mxGeometry relative="1" as="geometry" />
        </mxCell>
        <mxCell id="qdfca_HPiDvRjvZuORhi-148" value="&lt;span style=&quot;font-weight: normal;&quot;&gt;Pregunta freqüent 2&lt;/span&gt;" style="rounded=0;whiteSpace=wrap;html=1;fontStyle=1;fillColor=#99FF99;" vertex="1" parent="WIyWlLk6GJQsqaUBKTNV-1">
          <mxGeometry x="60" y="810" width="120" height="60" as="geometry" />
        </mxCell>
        <mxCell id="-Z4l_nvjU3ZCaJv-4ttp-22" style="edgeStyle=orthogonalEdgeStyle;rounded=0;orthogonalLoop=1;jettySize=auto;html=1;exitX=0.5;exitY=1;exitDx=0;exitDy=0;entryX=0.5;entryY=0;entryDx=0;entryDy=0;" edge="1" parent="WIyWlLk6GJQsqaUBKTNV-1" source="qdfca_HPiDvRjvZuORhi-153" target="-Z4l_nvjU3ZCaJv-4ttp-21">
          <mxGeometry relative="1" as="geometry" />
        </mxCell>
        <mxCell id="qdfca_HPiDvRjvZuORhi-153" value="&lt;p style=&quot;line-height:1.2;text-align: justify;margin-top:0pt;margin-bottom:12pt;&quot; dir=&quot;ltr&quot;&gt;&lt;/p&gt;&lt;p style=&quot;line-height:1.2;text-align: justify;margin-top:0pt;margin-bottom:12pt;&quot; dir=&quot;ltr&quot;&gt;&lt;/p&gt;&lt;div&gt;&lt;/div&gt;&lt;span style=&quot;font-size: 12pt; font-family: Arial, sans-serif; background-color: transparent; font-variant-numeric: normal; font-variant-east-asian: normal; font-variant-alternates: normal; font-variant-position: normal; vertical-align: baseline;&quot;&gt;Tràmit presencial a l’Incasòl – Cal venir amb el formulari model 2 gravat online&lt;/span&gt;&lt;p&gt;&lt;/p&gt;&lt;span style=&quot;font-size: 12pt; font-family: Arial, sans-serif; background-color: transparent; font-variant-numeric: normal; font-variant-east-asian: normal; font-variant-alternates: normal; font-variant-position: normal; vertical-align: baseline;&quot;&gt;Tràmit presencial a les Cambres de la Propietat Urbana i OAC&lt;/span&gt;&lt;p&gt;&lt;/p&gt;&lt;span id=&quot;docs-internal-guid-d42b0f60-7fff-eacc-1631-cf0528a88b4b&quot;&gt;&lt;/span&gt;" style="rounded=0;whiteSpace=wrap;html=1;fillColor=#99FF99;" vertex="1" parent="WIyWlLk6GJQsqaUBKTNV-1">
          <mxGeometry x="-720" y="1020" width="330" height="100" as="geometry" />
        </mxCell>
        <mxCell id="-Z4l_nvjU3ZCaJv-4ttp-20" style="edgeStyle=orthogonalEdgeStyle;rounded=0;orthogonalLoop=1;jettySize=auto;html=1;exitX=0.5;exitY=1;exitDx=0;exitDy=0;entryX=0.5;entryY=0;entryDx=0;entryDy=0;" edge="1" parent="WIyWlLk6GJQsqaUBKTNV-1" source="qdfca_HPiDvRjvZuORhi-155" target="-Z4l_nvjU3ZCaJv-4ttp-19">
          <mxGeometry relative="1" as="geometry" />
        </mxCell>
        <mxCell id="qdfca_HPiDvRjvZuORhi-155" value="Enllaç:&lt;a style=&quot;text-decoration-line: none;&quot; href=&quot;https://incasol.gencat.cat/ca/2-serveis_i_tramits/Fiances-de-lloguers/tramits-en-linia/diposit-de-fiances-cal-identificacio-digital/&quot;&gt;&lt;/a&gt;&lt;span id=&quot;docs-internal-guid-b2f70758-7fff-ec3a-8618-a8a537800c8d&quot;&gt;&lt;/span&gt;" style="rounded=0;whiteSpace=wrap;html=1;fillColor=#99FF99;" vertex="1" parent="WIyWlLk6GJQsqaUBKTNV-1">
          <mxGeometry x="-317" y="1040" width="167" height="50" as="geometry" />
        </mxCell>
        <mxCell id="qdfca_HPiDvRjvZuORhi-158" style="edgeStyle=orthogonalEdgeStyle;rounded=0;orthogonalLoop=1;jettySize=auto;html=1;exitX=0;exitY=0.5;exitDx=0;exitDy=0;entryX=1;entryY=0.5;entryDx=0;entryDy=0;" edge="1" parent="WIyWlLk6GJQsqaUBKTNV-1" source="qdfca_HPiDvRjvZuORhi-156" target="qdfca_HPiDvRjvZuORhi-136">
          <mxGeometry relative="1" as="geometry" />
        </mxCell>
        <mxCell id="zPntRhr0dhbVLGfu8nBC-27" style="edgeStyle=orthogonalEdgeStyle;rounded=0;orthogonalLoop=1;jettySize=auto;html=1;exitX=1;exitY=0.5;exitDx=0;exitDy=0;entryX=0;entryY=0.5;entryDx=0;entryDy=0;" edge="1" parent="WIyWlLk6GJQsqaUBKTNV-1" source="qdfca_HPiDvRjvZuORhi-156" target="qdfca_HPiDvRjvZuORhi-137">
          <mxGeometry relative="1" as="geometry" />
        </mxCell>
        <mxCell id="qdfca_HPiDvRjvZuORhi-156" value="A" style="rhombus;whiteSpace=wrap;html=1;fillColor=#94C2FF;" vertex="1" parent="WIyWlLk6GJQsqaUBKTNV-1">
          <mxGeometry x="-310" y="890" width="80" height="80" as="geometry" />
        </mxCell>
        <mxCell id="qdfca_HPiDvRjvZuORhi-162" style="edgeStyle=orthogonalEdgeStyle;rounded=0;orthogonalLoop=1;jettySize=auto;html=1;exitX=0;exitY=0.5;exitDx=0;exitDy=0;entryX=1;entryY=0.5;entryDx=0;entryDy=0;" edge="1" parent="WIyWlLk6GJQsqaUBKTNV-1" source="qdfca_HPiDvRjvZuORhi-160" target="zPntRhr0dhbVLGfu8nBC-25">
          <mxGeometry relative="1" as="geometry">
            <mxPoint x="332.00000000000045" y="567.5" as="targetPoint" />
          </mxGeometry>
        </mxCell>
        <mxCell id="qdfca_HPiDvRjvZuORhi-163" style="edgeStyle=orthogonalEdgeStyle;rounded=0;orthogonalLoop=1;jettySize=auto;html=1;exitX=1;exitY=0.5;exitDx=0;exitDy=0;entryX=0;entryY=0.75;entryDx=0;entryDy=0;" edge="1" parent="WIyWlLk6GJQsqaUBKTNV-1" source="qdfca_HPiDvRjvZuORhi-160" target="qdfca_HPiDvRjvZuORhi-99">
          <mxGeometry relative="1" as="geometry" />
        </mxCell>
        <mxCell id="qdfca_HPiDvRjvZuORhi-160" value="A" style="rhombus;whiteSpace=wrap;html=1;fillColor=#94C2FF;" vertex="1" parent="WIyWlLk6GJQsqaUBKTNV-1">
          <mxGeometry x="343.5" y="530" width="70" height="70" as="geometry" />
        </mxCell>
        <mxCell id="qdfca_HPiDvRjvZuORhi-167" style="edgeStyle=orthogonalEdgeStyle;rounded=0;orthogonalLoop=1;jettySize=auto;html=1;exitX=1;exitY=0.5;exitDx=0;exitDy=0;entryX=0;entryY=0.5;entryDx=0;entryDy=0;" edge="1" parent="WIyWlLk6GJQsqaUBKTNV-1" source="qdfca_HPiDvRjvZuORhi-164" target="qdfca_HPiDvRjvZuORhi-147">
          <mxGeometry relative="1" as="geometry" />
        </mxCell>
        <mxCell id="zPntRhr0dhbVLGfu8nBC-26" style="edgeStyle=orthogonalEdgeStyle;rounded=0;orthogonalLoop=1;jettySize=auto;html=1;exitX=0;exitY=0.5;exitDx=0;exitDy=0;entryX=1;entryY=0.5;entryDx=0;entryDy=0;" edge="1" parent="WIyWlLk6GJQsqaUBKTNV-1" source="qdfca_HPiDvRjvZuORhi-164" target="qdfca_HPiDvRjvZuORhi-146">
          <mxGeometry relative="1" as="geometry">
            <mxPoint x="60" y="940.25" as="targetPoint" />
          </mxGeometry>
        </mxCell>
        <mxCell id="qdfca_HPiDvRjvZuORhi-164" value="A" style="rhombus;whiteSpace=wrap;html=1;fillColor=#94C2FF;" vertex="1" parent="WIyWlLk6GJQsqaUBKTNV-1">
          <mxGeometry x="80" y="890" width="80" height="80" as="geometry" />
        </mxCell>
        <mxCell id="qdfca_HPiDvRjvZuORhi-171" style="edgeStyle=orthogonalEdgeStyle;rounded=0;orthogonalLoop=1;jettySize=auto;html=1;exitX=1;exitY=0.5;exitDx=0;exitDy=0;entryX=0;entryY=0.5;entryDx=0;entryDy=0;" edge="1" parent="WIyWlLk6GJQsqaUBKTNV-1" source="qdfca_HPiDvRjvZuORhi-168" target="qdfca_HPiDvRjvZuORhi-169">
          <mxGeometry relative="1" as="geometry">
            <mxPoint x="1435" y="185" as="targetPoint" />
          </mxGeometry>
        </mxCell>
        <mxCell id="qdfca_HPiDvRjvZuORhi-174" style="edgeStyle=orthogonalEdgeStyle;rounded=0;orthogonalLoop=1;jettySize=auto;html=1;exitX=0;exitY=0.5;exitDx=0;exitDy=0;entryX=1;entryY=0.5;entryDx=0;entryDy=0;" edge="1" parent="WIyWlLk6GJQsqaUBKTNV-1" source="qdfca_HPiDvRjvZuORhi-168" target="MuJXjMNVlSd1NOK1ybPZ-3">
          <mxGeometry relative="1" as="geometry">
            <mxPoint x="1375" y="170" as="targetPoint" />
          </mxGeometry>
        </mxCell>
        <mxCell id="qdfca_HPiDvRjvZuORhi-168" value="A" style="rhombus;whiteSpace=wrap;html=1;fillColor=#94C2FF;" vertex="1" parent="WIyWlLk6GJQsqaUBKTNV-1">
          <mxGeometry x="1404.5" y="150" width="40" height="40" as="geometry" />
        </mxCell>
        <mxCell id="qdfca_HPiDvRjvZuORhi-169" value="No" style="rounded=0;whiteSpace=wrap;html=1;fillColor=#33FFFF;" vertex="1" parent="WIyWlLk6GJQsqaUBKTNV-1">
          <mxGeometry x="1455" y="160" width="60" height="20" as="geometry" />
        </mxCell>
        <mxCell id="qdfca_HPiDvRjvZuORhi-173" style="edgeStyle=orthogonalEdgeStyle;rounded=0;orthogonalLoop=1;jettySize=auto;html=1;entryX=0.591;entryY=0.161;entryDx=0;entryDy=0;entryPerimeter=0;" edge="1" parent="WIyWlLk6GJQsqaUBKTNV-1" source="qdfca_HPiDvRjvZuORhi-78" target="qdfca_HPiDvRjvZuORhi-168">
          <mxGeometry relative="1" as="geometry" />
        </mxCell>
        <mxCell id="-Z4l_nvjU3ZCaJv-4ttp-18" style="edgeStyle=orthogonalEdgeStyle;rounded=0;orthogonalLoop=1;jettySize=auto;html=1;exitX=0.5;exitY=1;exitDx=0;exitDy=0;entryX=0.5;entryY=0;entryDx=0;entryDy=0;" edge="1" parent="WIyWlLk6GJQsqaUBKTNV-1" source="qdfca_HPiDvRjvZuORhi-177" target="-Z4l_nvjU3ZCaJv-4ttp-2">
          <mxGeometry relative="1" as="geometry" />
        </mxCell>
        <mxCell id="qdfca_HPiDvRjvZuORhi-177" value="&lt;p style=&quot;line-height:1.2;text-align: justify;margin-top:0pt;margin-bottom:12pt;&quot; dir=&quot;ltr&quot;&gt;&lt;/p&gt;&lt;p style=&quot;line-height:1.2;text-align: justify;margin-top:0pt;margin-bottom:12pt;&quot; dir=&quot;ltr&quot;&gt;&lt;/p&gt;&lt;div&gt;&lt;/div&gt;&lt;span style=&quot;font-size: 12pt; font-family: Arial, sans-serif; background-color: transparent; font-variant-numeric: normal; font-variant-east-asian: normal; font-variant-alternates: normal; font-variant-position: normal; vertical-align: baseline;&quot;&gt;Tràmit presencial a l’Incasòl – Cal venir amb el formulari model 2 gravat online&lt;/span&gt;&lt;p&gt;&lt;/p&gt;&lt;span style=&quot;font-size: 12pt; font-family: Arial, sans-serif; background-color: transparent; font-variant-numeric: normal; font-variant-east-asian: normal; font-variant-alternates: normal; font-variant-position: normal; vertical-align: baseline;&quot;&gt;Tràmit presencial a les Cambres de la Propietat Urbana i OAC&lt;/span&gt;&lt;p&gt;&lt;/p&gt;&lt;span id=&quot;docs-internal-guid-d42b0f60-7fff-eacc-1631-cf0528a88b4b&quot;&gt;&lt;/span&gt;" style="rounded=0;whiteSpace=wrap;html=1;fillColor=#99FF99;" vertex="1" parent="WIyWlLk6GJQsqaUBKTNV-1">
          <mxGeometry x="-120" y="1025" width="310" height="95" as="geometry" />
        </mxCell>
        <mxCell id="-Z4l_nvjU3ZCaJv-4ttp-14" style="edgeStyle=orthogonalEdgeStyle;rounded=0;orthogonalLoop=1;jettySize=auto;html=1;exitX=0.5;exitY=1;exitDx=0;exitDy=0;entryX=0.5;entryY=0;entryDx=0;entryDy=0;" edge="1" parent="WIyWlLk6GJQsqaUBKTNV-1" source="qdfca_HPiDvRjvZuORhi-178" target="-Z4l_nvjU3ZCaJv-4ttp-13">
          <mxGeometry relative="1" as="geometry" />
        </mxCell>
        <mxCell id="qdfca_HPiDvRjvZuORhi-178" value="&lt;br&gt;&lt;br&gt;Enllaç:&lt;span id=&quot;docs-internal-guid-b2f70758-7fff-ec3a-8618-a8a537800c8d&quot;&gt;&lt;/span&gt;&lt;p dir=&quot;ltr&quot; style=&quot;line-height:1.2;text-align: justify;margin-top:0pt;margin-bottom:12pt;&quot;&gt;&lt;/p&gt;&lt;div&gt;&lt;a href=&quot;https://incasol.gencat.cat/ca/2-serveis_i_tramits/Fiances-de-lloguers/tramits-en-linia/devolucio-de-fiances/&quot; style=&quot;text-decoration-line: none;&quot;&gt;&lt;br&gt;&lt;/a&gt;&lt;/div&gt;&lt;p&gt;&lt;/p&gt;&lt;span id=&quot;docs-internal-guid-e47f68b3-7fff-16d0-5a17-8d188a68883f&quot;&gt;&lt;/span&gt;" style="rounded=0;whiteSpace=wrap;html=1;fillColor=#99FF99;" vertex="1" parent="WIyWlLk6GJQsqaUBKTNV-1">
          <mxGeometry x="283" y="1045" width="167" height="55" as="geometry" />
        </mxCell>
        <mxCell id="qdfca_HPiDvRjvZuORhi-191" style="edgeStyle=orthogonalEdgeStyle;rounded=0;orthogonalLoop=1;jettySize=auto;html=1;exitX=0.5;exitY=1;exitDx=0;exitDy=0;" edge="1" parent="WIyWlLk6GJQsqaUBKTNV-1" source="qdfca_HPiDvRjvZuORhi-181" target="qdfca_HPiDvRjvZuORhi-192">
          <mxGeometry relative="1" as="geometry">
            <mxPoint x="-129" y="600" as="targetPoint" />
          </mxGeometry>
        </mxCell>
        <mxCell id="qdfca_HPiDvRjvZuORhi-181" value="FAQ Doc P10" style="rounded=0;whiteSpace=wrap;html=1;fillColor=#33FFFF;" vertex="1" parent="WIyWlLk6GJQsqaUBKTNV-1">
          <mxGeometry x="-240" y="485" width="120" height="60" as="geometry" />
        </mxCell>
        <mxCell id="qdfca_HPiDvRjvZuORhi-185" style="edgeStyle=orthogonalEdgeStyle;rounded=0;orthogonalLoop=1;jettySize=auto;html=1;exitX=0;exitY=0.5;exitDx=0;exitDy=0;entryX=1;entryY=0.5;entryDx=0;entryDy=0;" edge="1" parent="WIyWlLk6GJQsqaUBKTNV-1" source="qdfca_HPiDvRjvZuORhi-184" target="qdfca_HPiDvRjvZuORhi-49">
          <mxGeometry relative="1" as="geometry" />
        </mxCell>
        <mxCell id="qdfca_HPiDvRjvZuORhi-186" value="" style="edgeStyle=orthogonalEdgeStyle;rounded=0;orthogonalLoop=1;jettySize=auto;html=1;" edge="1" parent="WIyWlLk6GJQsqaUBKTNV-1" source="qdfca_HPiDvRjvZuORhi-184" target="qdfca_HPiDvRjvZuORhi-53">
          <mxGeometry relative="1" as="geometry" />
        </mxCell>
        <mxCell id="qdfca_HPiDvRjvZuORhi-184" value="A" style="rhombus;whiteSpace=wrap;html=1;fillColor=#94C2FF;" vertex="1" parent="WIyWlLk6GJQsqaUBKTNV-1">
          <mxGeometry x="1200.5" y="615" width="80" height="80" as="geometry" />
        </mxCell>
        <mxCell id="-Z4l_nvjU3ZCaJv-4ttp-39" style="edgeStyle=orthogonalEdgeStyle;rounded=0;orthogonalLoop=1;jettySize=auto;html=1;exitX=0.5;exitY=1;exitDx=0;exitDy=0;entryX=0.5;entryY=0;entryDx=0;entryDy=0;" edge="1" parent="WIyWlLk6GJQsqaUBKTNV-1" source="qdfca_HPiDvRjvZuORhi-192" target="-Z4l_nvjU3ZCaJv-4ttp-38">
          <mxGeometry relative="1" as="geometry" />
        </mxCell>
        <mxCell id="qdfca_HPiDvRjvZuORhi-192" value="Preguntes Freqüents 5" style="rounded=0;whiteSpace=wrap;html=1;fillColor=#99FF99;" vertex="1" parent="WIyWlLk6GJQsqaUBKTNV-1">
          <mxGeometry x="-240" y="575" width="120" height="60" as="geometry" />
        </mxCell>
        <mxCell id="qdfca_HPiDvRjvZuORhi-197" style="edgeStyle=orthogonalEdgeStyle;rounded=0;orthogonalLoop=1;jettySize=auto;html=1;exitX=0.5;exitY=1;exitDx=0;exitDy=0;entryX=0.5;entryY=0;entryDx=0;entryDy=0;" edge="1" parent="WIyWlLk6GJQsqaUBKTNV-1" target="qdfca_HPiDvRjvZuORhi-196">
          <mxGeometry relative="1" as="geometry">
            <mxPoint x="-270" y="300" as="sourcePoint" />
          </mxGeometry>
        </mxCell>
        <mxCell id="-Z4l_nvjU3ZCaJv-4ttp-35" style="edgeStyle=orthogonalEdgeStyle;rounded=0;orthogonalLoop=1;jettySize=auto;html=1;exitX=0.5;exitY=1;exitDx=0;exitDy=0;entryX=0.5;entryY=0;entryDx=0;entryDy=0;" edge="1" parent="WIyWlLk6GJQsqaUBKTNV-1" source="qdfca_HPiDvRjvZuORhi-196" target="-Z4l_nvjU3ZCaJv-4ttp-34">
          <mxGeometry relative="1" as="geometry" />
        </mxCell>
        <mxCell id="qdfca_HPiDvRjvZuORhi-196" value="Preguntes Freqüents 6" style="rounded=0;whiteSpace=wrap;html=1;fillColor=#99FF99;" vertex="1" parent="WIyWlLk6GJQsqaUBKTNV-1">
          <mxGeometry x="-317" y="350" width="120" height="60" as="geometry" />
        </mxCell>
        <mxCell id="qdfca_HPiDvRjvZuORhi-205" style="edgeStyle=orthogonalEdgeStyle;rounded=0;orthogonalLoop=1;jettySize=auto;html=1;exitX=0.5;exitY=1;exitDx=0;exitDy=0;entryX=0.5;entryY=0;entryDx=0;entryDy=0;" edge="1" parent="WIyWlLk6GJQsqaUBKTNV-1" source="qdfca_HPiDvRjvZuORhi-200" target="qdfca_HPiDvRjvZuORhi-203">
          <mxGeometry relative="1" as="geometry" />
        </mxCell>
        <mxCell id="qdfca_HPiDvRjvZuORhi-200" value="FAQ Doc P13" style="whiteSpace=wrap;html=1;fillColor=#33FFFF;" vertex="1" parent="WIyWlLk6GJQsqaUBKTNV-1">
          <mxGeometry x="-810" y="240" width="120" height="60" as="geometry" />
        </mxCell>
        <mxCell id="-Z4l_nvjU3ZCaJv-4ttp-32" style="edgeStyle=orthogonalEdgeStyle;rounded=0;orthogonalLoop=1;jettySize=auto;html=1;exitX=0.5;exitY=1;exitDx=0;exitDy=0;entryX=0.5;entryY=0;entryDx=0;entryDy=0;" edge="1" parent="WIyWlLk6GJQsqaUBKTNV-1" source="qdfca_HPiDvRjvZuORhi-203" target="-Z4l_nvjU3ZCaJv-4ttp-31">
          <mxGeometry relative="1" as="geometry" />
        </mxCell>
        <mxCell id="qdfca_HPiDvRjvZuORhi-203" value="Resposta al Document" style="whiteSpace=wrap;html=1;fillColor=#99FF99;" vertex="1" parent="WIyWlLk6GJQsqaUBKTNV-1">
          <mxGeometry x="-810" y="340" width="120" height="60" as="geometry" />
        </mxCell>
        <mxCell id="qdfca_HPiDvRjvZuORhi-209" style="edgeStyle=orthogonalEdgeStyle;rounded=0;orthogonalLoop=1;jettySize=auto;html=1;exitX=0.5;exitY=1;exitDx=0;exitDy=0;entryX=0.5;entryY=0;entryDx=0;entryDy=0;" edge="1" parent="WIyWlLk6GJQsqaUBKTNV-1" source="qdfca_HPiDvRjvZuORhi-206" target="qdfca_HPiDvRjvZuORhi-208">
          <mxGeometry relative="1" as="geometry" />
        </mxCell>
        <mxCell id="qdfca_HPiDvRjvZuORhi-206" value="FAQ Doc P14" style="whiteSpace=wrap;html=1;fillColor=#33FFFF;" vertex="1" parent="WIyWlLk6GJQsqaUBKTNV-1">
          <mxGeometry x="-654" y="240" width="134" height="70" as="geometry" />
        </mxCell>
        <mxCell id="-Z4l_nvjU3ZCaJv-4ttp-33" style="edgeStyle=orthogonalEdgeStyle;rounded=0;orthogonalLoop=1;jettySize=auto;html=1;exitX=0.5;exitY=1;exitDx=0;exitDy=0;entryX=0.5;entryY=0;entryDx=0;entryDy=0;" edge="1" parent="WIyWlLk6GJQsqaUBKTNV-1" source="qdfca_HPiDvRjvZuORhi-208" target="-Z4l_nvjU3ZCaJv-4ttp-30">
          <mxGeometry relative="1" as="geometry" />
        </mxCell>
        <mxCell id="qdfca_HPiDvRjvZuORhi-208" value="Resposta al Document" style="whiteSpace=wrap;html=1;fillColor=#99FF99;" vertex="1" parent="WIyWlLk6GJQsqaUBKTNV-1">
          <mxGeometry x="-647" y="340" width="120" height="60" as="geometry" />
        </mxCell>
        <mxCell id="qdfca_HPiDvRjvZuORhi-213" style="edgeStyle=orthogonalEdgeStyle;rounded=0;orthogonalLoop=1;jettySize=auto;html=1;exitX=0;exitY=0.5;exitDx=0;exitDy=0;" edge="1" parent="WIyWlLk6GJQsqaUBKTNV-1" source="qdfca_HPiDvRjvZuORhi-210">
          <mxGeometry relative="1" as="geometry">
            <mxPoint x="1010" y="810" as="targetPoint" />
          </mxGeometry>
        </mxCell>
        <mxCell id="qdfca_HPiDvRjvZuORhi-214" style="edgeStyle=orthogonalEdgeStyle;rounded=0;orthogonalLoop=1;jettySize=auto;html=1;exitX=1;exitY=0.5;exitDx=0;exitDy=0;entryX=0;entryY=0.5;entryDx=0;entryDy=0;" edge="1" parent="WIyWlLk6GJQsqaUBKTNV-1" source="qdfca_HPiDvRjvZuORhi-210" target="qdfca_HPiDvRjvZuORhi-57">
          <mxGeometry relative="1" as="geometry" />
        </mxCell>
        <mxCell id="qdfca_HPiDvRjvZuORhi-210" value="A" style="rhombus;whiteSpace=wrap;html=1;fillColor=#94C2FF;" vertex="1" parent="WIyWlLk6GJQsqaUBKTNV-1">
          <mxGeometry x="1050" y="775" width="40" height="40" as="geometry" />
        </mxCell>
        <mxCell id="qdfca_HPiDvRjvZuORhi-216" value="&lt;br&gt;&lt;br&gt;&lt;br&gt;Enllaç:&amp;nbsp;&lt;span id=&quot;docs-internal-guid-9a02a69a-7fff-f8d9-4444-76cc4308ad4e&quot;&gt;Apartat Certificat&lt;br&gt;&amp;nbsp;Informatiu Fiança&lt;p dir=&quot;ltr&quot; style=&quot;line-height:1.2;text-align: justify;margin-top:0pt;margin-bottom:12pt;&quot;&gt;&lt;a href=&quot;https://incasol.gencat.cat/ca/2-serveis_i_tramits/Fiances-de-lloguers/altres-serveis/sol.licituds/&quot; style=&quot;text-decoration-line: none;&quot;&gt;&lt;/a&gt;&lt;/p&gt;&lt;div&gt;&lt;br&gt;&lt;/div&gt;&lt;p&gt;&lt;/p&gt;&lt;span id=&quot;docs-internal-guid-9a02a69a-7fff-f8d9-4444-76cc4308ad4e&quot;&gt;&lt;/span&gt;&lt;/span&gt;" style="rounded=0;whiteSpace=wrap;html=1;fillColor=#99FF99;" vertex="1" parent="WIyWlLk6GJQsqaUBKTNV-1">
          <mxGeometry x="870" y="485" width="160" height="80" as="geometry" />
        </mxCell>
        <mxCell id="zPntRhr0dhbVLGfu8nBC-9" style="edgeStyle=orthogonalEdgeStyle;rounded=0;orthogonalLoop=1;jettySize=auto;html=1;exitX=0.5;exitY=1;exitDx=0;exitDy=0;entryX=0.5;entryY=0;entryDx=0;entryDy=0;" edge="1" parent="WIyWlLk6GJQsqaUBKTNV-1" source="zPntRhr0dhbVLGfu8nBC-2" target="zPntRhr0dhbVLGfu8nBC-8">
          <mxGeometry relative="1" as="geometry" />
        </mxCell>
        <mxCell id="zPntRhr0dhbVLGfu8nBC-2" value="FAQ Doc P17" style="rounded=0;whiteSpace=wrap;html=1;fillColor=#33FFFF;" vertex="1" parent="WIyWlLk6GJQsqaUBKTNV-1">
          <mxGeometry x="-50" y="280" width="120" height="60" as="geometry" />
        </mxCell>
        <mxCell id="zPntRhr0dhbVLGfu8nBC-11" style="edgeStyle=orthogonalEdgeStyle;rounded=0;orthogonalLoop=1;jettySize=auto;html=1;exitX=1;exitY=0.5;exitDx=0;exitDy=0;" edge="1" parent="WIyWlLk6GJQsqaUBKTNV-1" source="zPntRhr0dhbVLGfu8nBC-3">
          <mxGeometry relative="1" as="geometry">
            <mxPoint x="100" y="484.46153846153834" as="targetPoint" />
          </mxGeometry>
        </mxCell>
        <mxCell id="zPntRhr0dhbVLGfu8nBC-18" style="edgeStyle=orthogonalEdgeStyle;rounded=0;orthogonalLoop=1;jettySize=auto;html=1;exitX=0;exitY=0.5;exitDx=0;exitDy=0;" edge="1" parent="WIyWlLk6GJQsqaUBKTNV-1" source="zPntRhr0dhbVLGfu8nBC-3">
          <mxGeometry relative="1" as="geometry">
            <mxPoint x="-10" y="484.46153846153834" as="targetPoint" />
          </mxGeometry>
        </mxCell>
        <mxCell id="zPntRhr0dhbVLGfu8nBC-3" value="A" style="rhombus;whiteSpace=wrap;html=1;fillColor=#94C2FF;" vertex="1" parent="WIyWlLk6GJQsqaUBKTNV-1">
          <mxGeometry x="10" y="450" width="70" height="70" as="geometry" />
        </mxCell>
        <mxCell id="zPntRhr0dhbVLGfu8nBC-31" style="edgeStyle=orthogonalEdgeStyle;rounded=0;orthogonalLoop=1;jettySize=auto;html=1;exitX=0.5;exitY=1;exitDx=0;exitDy=0;entryX=0.5;entryY=0;entryDx=0;entryDy=0;" edge="1" parent="WIyWlLk6GJQsqaUBKTNV-1" source="zPntRhr0dhbVLGfu8nBC-8" target="zPntRhr0dhbVLGfu8nBC-3">
          <mxGeometry relative="1" as="geometry" />
        </mxCell>
        <mxCell id="zPntRhr0dhbVLGfu8nBC-8" value="S&#39;ha signat nou contracte?" style="rounded=0;whiteSpace=wrap;html=1;fillColor=#99FF99;" vertex="1" parent="WIyWlLk6GJQsqaUBKTNV-1">
          <mxGeometry x="-30" y="370" width="120" height="60" as="geometry" />
        </mxCell>
        <mxCell id="-Z4l_nvjU3ZCaJv-4ttp-71" style="edgeStyle=orthogonalEdgeStyle;rounded=0;orthogonalLoop=1;jettySize=auto;html=1;exitX=0.25;exitY=1;exitDx=0;exitDy=0;entryX=0.5;entryY=0;entryDx=0;entryDy=0;" edge="1" parent="WIyWlLk6GJQsqaUBKTNV-1" source="zPntRhr0dhbVLGfu8nBC-19" target="-Z4l_nvjU3ZCaJv-4ttp-67">
          <mxGeometry relative="1" as="geometry">
            <Array as="points">
              <mxPoint x="118" y="510" />
              <mxPoint x="90" y="510" />
              <mxPoint x="90" y="575" />
              <mxPoint x="18" y="575" />
            </Array>
          </mxGeometry>
        </mxCell>
        <mxCell id="-Z4l_nvjU3ZCaJv-4ttp-74" style="edgeStyle=orthogonalEdgeStyle;rounded=0;orthogonalLoop=1;jettySize=auto;html=1;exitX=0.75;exitY=1;exitDx=0;exitDy=0;entryX=0.5;entryY=0;entryDx=0;entryDy=0;" edge="1" parent="WIyWlLk6GJQsqaUBKTNV-1" source="zPntRhr0dhbVLGfu8nBC-19" target="-Z4l_nvjU3ZCaJv-4ttp-73">
          <mxGeometry relative="1" as="geometry" />
        </mxCell>
        <mxCell id="zPntRhr0dhbVLGfu8nBC-19" value="Si" style="rounded=1;whiteSpace=wrap;html=1;fillColor=#33FFFF;" vertex="1" parent="WIyWlLk6GJQsqaUBKTNV-1">
          <mxGeometry x="100" y="465" width="70" height="30" as="geometry" />
        </mxCell>
        <mxCell id="zPntRhr0dhbVLGfu8nBC-21" style="edgeStyle=orthogonalEdgeStyle;rounded=0;orthogonalLoop=1;jettySize=auto;html=1;exitX=0.5;exitY=1;exitDx=0;exitDy=0;entryX=0.5;entryY=0;entryDx=0;entryDy=0;" edge="1" parent="WIyWlLk6GJQsqaUBKTNV-1" source="zPntRhr0dhbVLGfu8nBC-20" target="zPntRhr0dhbVLGfu8nBC-33">
          <mxGeometry relative="1" as="geometry">
            <mxPoint x="-44" y="520" as="targetPoint" />
          </mxGeometry>
        </mxCell>
        <mxCell id="zPntRhr0dhbVLGfu8nBC-20" value="No" style="rounded=1;whiteSpace=wrap;html=1;fillColor=#33FFFF;" vertex="1" parent="WIyWlLk6GJQsqaUBKTNV-1">
          <mxGeometry x="-80" y="465" width="70" height="30" as="geometry" />
        </mxCell>
        <mxCell id="zPntRhr0dhbVLGfu8nBC-25" value="Si" style="rounded=1;whiteSpace=wrap;html=1;fillColor=#33FFFF;" vertex="1" parent="WIyWlLk6GJQsqaUBKTNV-1">
          <mxGeometry x="240" y="545" width="70" height="30" as="geometry" />
        </mxCell>
        <mxCell id="-Z4l_nvjU3ZCaJv-4ttp-37" style="edgeStyle=orthogonalEdgeStyle;rounded=0;orthogonalLoop=1;jettySize=auto;html=1;exitX=0.5;exitY=1;exitDx=0;exitDy=0;entryX=0.5;entryY=0;entryDx=0;entryDy=0;" edge="1" parent="WIyWlLk6GJQsqaUBKTNV-1" source="zPntRhr0dhbVLGfu8nBC-33" target="-Z4l_nvjU3ZCaJv-4ttp-36">
          <mxGeometry relative="1" as="geometry" />
        </mxCell>
        <mxCell id="zPntRhr0dhbVLGfu8nBC-33" value="Tràmit Actualització Fiança" style="rounded=0;whiteSpace=wrap;html=1;fillColor=#99FF99;" vertex="1" parent="WIyWlLk6GJQsqaUBKTNV-1">
          <mxGeometry x="-105" y="510" width="120" height="60" as="geometry" />
        </mxCell>
        <mxCell id="MuJXjMNVlSd1NOK1ybPZ-0" value="" style="edgeStyle=orthogonalEdgeStyle;rounded=0;orthogonalLoop=1;jettySize=auto;html=1;exitX=1;exitY=0.5;exitDx=0;exitDy=0;" edge="1" parent="WIyWlLk6GJQsqaUBKTNV-1" source="qdfca_HPiDvRjvZuORhi-23" target="qdfca_HPiDvRjvZuORhi-36">
          <mxGeometry relative="1" as="geometry">
            <mxPoint x="1270" y="155.33333333333337" as="targetPoint" />
            <mxPoint x="1130" y="155" as="sourcePoint" />
          </mxGeometry>
        </mxCell>
        <mxCell id="qdfca_HPiDvRjvZuORhi-36" value="Et refereixes a algun dels següents aspectes?" style="rounded=1;whiteSpace=wrap;html=1;fillColor=#99FF99;" vertex="1" parent="WIyWlLk6GJQsqaUBKTNV-1">
          <mxGeometry x="1170.5" y="120" width="110" height="70" as="geometry" />
        </mxCell>
        <mxCell id="MuJXjMNVlSd1NOK1ybPZ-2" style="edgeStyle=none;curved=1;rounded=0;orthogonalLoop=1;jettySize=auto;html=1;exitX=1;exitY=0.5;exitDx=0;exitDy=0;entryX=0;entryY=0.5;entryDx=0;entryDy=0;fontSize=12;startSize=8;endSize=8;" edge="1" parent="WIyWlLk6GJQsqaUBKTNV-1" source="MuJXjMNVlSd1NOK1ybPZ-1" target="qdfca_HPiDvRjvZuORhi-78">
          <mxGeometry relative="1" as="geometry" />
        </mxCell>
        <mxCell id="MuJXjMNVlSd1NOK1ybPZ-1" value="COMIAT" style="rounded=1;whiteSpace=wrap;html=1;" vertex="1" parent="WIyWlLk6GJQsqaUBKTNV-1">
          <mxGeometry x="1170.5" y="40" width="120" height="60" as="geometry" />
        </mxCell>
        <mxCell id="MuJXjMNVlSd1NOK1ybPZ-3" value="Si" style="rounded=0;whiteSpace=wrap;html=1;fillColor=#33FFFF;" vertex="1" parent="WIyWlLk6GJQsqaUBKTNV-1">
          <mxGeometry x="1300" y="180" width="60" height="20" as="geometry" />
        </mxCell>
        <mxCell id="MuJXjMNVlSd1NOK1ybPZ-4" value="Gràcies per utilitzar solbot" style="rounded=0;whiteSpace=wrap;html=1;fontSize=16;fillColor=#99FF99;" vertex="1" parent="WIyWlLk6GJQsqaUBKTNV-1">
          <mxGeometry x="1444.5" y="245" width="100" height="50" as="geometry" />
        </mxCell>
        <mxCell id="MuJXjMNVlSd1NOK1ybPZ-9" style="edgeStyle=orthogonalEdgeStyle;rounded=0;orthogonalLoop=1;jettySize=auto;html=1;exitX=0.5;exitY=1;exitDx=0;exitDy=0;entryX=0.5;entryY=0;entryDx=0;entryDy=0;" edge="1" parent="WIyWlLk6GJQsqaUBKTNV-1" source="MuJXjMNVlSd1NOK1ybPZ-3" target="MuJXjMNVlSd1NOK1ybPZ-4">
          <mxGeometry relative="1" as="geometry">
            <mxPoint x="1355" y="190" as="targetPoint" />
            <mxPoint x="1405" y="113" as="sourcePoint" />
            <Array as="points">
              <mxPoint x="1410" y="200" />
              <mxPoint x="1410" y="230" />
              <mxPoint x="1495" y="230" />
            </Array>
          </mxGeometry>
        </mxCell>
        <mxCell id="-Z4l_nvjU3ZCaJv-4ttp-1" value="COMIAT" style="rounded=1;whiteSpace=wrap;html=1;fillColor=#99FF99;" vertex="1" parent="WIyWlLk6GJQsqaUBKTNV-1">
          <mxGeometry x="1474.5" y="570" width="70" height="30" as="geometry" />
        </mxCell>
        <mxCell id="-Z4l_nvjU3ZCaJv-4ttp-2" value="COMIAT" style="rounded=1;whiteSpace=wrap;html=1;fillColor=#99FF99;" vertex="1" parent="WIyWlLk6GJQsqaUBKTNV-1">
          <mxGeometry x="-5" y="1140" width="70" height="30" as="geometry" />
        </mxCell>
        <mxCell id="-Z4l_nvjU3ZCaJv-4ttp-3" value="COMIAT" style="rounded=1;whiteSpace=wrap;html=1;fillColor=#99FF99;" vertex="1" parent="WIyWlLk6GJQsqaUBKTNV-1">
          <mxGeometry x="1190.5" y="995" width="70" height="30" as="geometry" />
        </mxCell>
        <mxCell id="-Z4l_nvjU3ZCaJv-4ttp-4" value="COMIAT" style="rounded=1;whiteSpace=wrap;html=1;fillColor=#99FF99;" vertex="1" parent="WIyWlLk6GJQsqaUBKTNV-1">
          <mxGeometry x="1389.5" y="860" width="70" height="30" as="geometry" />
        </mxCell>
        <mxCell id="-Z4l_nvjU3ZCaJv-4ttp-10" value="COMIAT" style="rounded=1;whiteSpace=wrap;html=1;fillColor=#99FF99;" vertex="1" parent="WIyWlLk6GJQsqaUBKTNV-1">
          <mxGeometry x="222" y="700" width="70" height="30" as="geometry" />
        </mxCell>
        <mxCell id="-Z4l_nvjU3ZCaJv-4ttp-11" value="COMIAT" style="rounded=1;whiteSpace=wrap;html=1;fillColor=#99FF99;" vertex="1" parent="WIyWlLk6GJQsqaUBKTNV-1">
          <mxGeometry x="365" y="710" width="70" height="30" as="geometry" />
        </mxCell>
        <mxCell id="-Z4l_nvjU3ZCaJv-4ttp-12" value="COMIAT" style="rounded=1;whiteSpace=wrap;html=1;fillColor=#99FF99;" vertex="1" parent="WIyWlLk6GJQsqaUBKTNV-1">
          <mxGeometry x="560" y="785" width="70" height="30" as="geometry" />
        </mxCell>
        <mxCell id="-Z4l_nvjU3ZCaJv-4ttp-13" value="COMIAT" style="rounded=1;whiteSpace=wrap;html=1;fillColor=#99FF99;" vertex="1" parent="WIyWlLk6GJQsqaUBKTNV-1">
          <mxGeometry x="332" y="1125" width="70" height="30" as="geometry" />
        </mxCell>
        <mxCell id="-Z4l_nvjU3ZCaJv-4ttp-19" value="COMIAT" style="rounded=1;whiteSpace=wrap;html=1;fillColor=#99FF99;" vertex="1" parent="WIyWlLk6GJQsqaUBKTNV-1">
          <mxGeometry x="-268.5" y="1125" width="70" height="30" as="geometry" />
        </mxCell>
        <mxCell id="-Z4l_nvjU3ZCaJv-4ttp-21" value="COMIAT" style="rounded=1;whiteSpace=wrap;html=1;fillColor=#99FF99;" vertex="1" parent="WIyWlLk6GJQsqaUBKTNV-1">
          <mxGeometry x="-589" y="1140" width="70" height="30" as="geometry" />
        </mxCell>
        <mxCell id="-Z4l_nvjU3ZCaJv-4ttp-23" value="COMIAT" style="rounded=1;whiteSpace=wrap;html=1;fillColor=#99FF99;" vertex="1" parent="WIyWlLk6GJQsqaUBKTNV-1">
          <mxGeometry x="-802" y="840" width="70" height="30" as="geometry" />
        </mxCell>
        <mxCell id="-Z4l_nvjU3ZCaJv-4ttp-25" value="COMIAT" style="rounded=1;whiteSpace=wrap;html=1;fillColor=#99FF99;" vertex="1" parent="WIyWlLk6GJQsqaUBKTNV-1">
          <mxGeometry x="-647" y="830" width="70" height="30" as="geometry" />
        </mxCell>
        <mxCell id="-Z4l_nvjU3ZCaJv-4ttp-28" value="COMIAT" style="rounded=1;whiteSpace=wrap;html=1;fillColor=#99FF99;" vertex="1" parent="WIyWlLk6GJQsqaUBKTNV-1">
          <mxGeometry x="-500" y="825" width="70" height="30" as="geometry" />
        </mxCell>
        <mxCell id="-Z4l_nvjU3ZCaJv-4ttp-30" value="COMIAT" style="rounded=1;whiteSpace=wrap;html=1;fillColor=#99FF99;" vertex="1" parent="WIyWlLk6GJQsqaUBKTNV-1">
          <mxGeometry x="-624" y="430" width="70" height="30" as="geometry" />
        </mxCell>
        <mxCell id="-Z4l_nvjU3ZCaJv-4ttp-31" value="COMIAT" style="rounded=1;whiteSpace=wrap;html=1;fillColor=#99FF99;" vertex="1" parent="WIyWlLk6GJQsqaUBKTNV-1">
          <mxGeometry x="-790" y="430" width="70" height="30" as="geometry" />
        </mxCell>
        <mxCell id="-Z4l_nvjU3ZCaJv-4ttp-34" value="COMIAT" style="rounded=1;whiteSpace=wrap;html=1;fillColor=#99FF99;" vertex="1" parent="WIyWlLk6GJQsqaUBKTNV-1">
          <mxGeometry x="-292" y="440" width="70" height="30" as="geometry" />
        </mxCell>
        <mxCell id="-Z4l_nvjU3ZCaJv-4ttp-36" value="COMIAT" style="rounded=1;whiteSpace=wrap;html=1;fillColor=#99FF99;" vertex="1" parent="WIyWlLk6GJQsqaUBKTNV-1">
          <mxGeometry x="-80" y="605" width="70" height="30" as="geometry" />
        </mxCell>
        <mxCell id="-Z4l_nvjU3ZCaJv-4ttp-38" value="COMIAT" style="rounded=1;whiteSpace=wrap;html=1;fillColor=#99FF99;" vertex="1" parent="WIyWlLk6GJQsqaUBKTNV-1">
          <mxGeometry x="-210" y="655" width="70" height="30" as="geometry" />
        </mxCell>
        <mxCell id="-Z4l_nvjU3ZCaJv-4ttp-44" value="" style="rounded=0;whiteSpace=wrap;html=1;" vertex="1" parent="WIyWlLk6GJQsqaUBKTNV-1">
          <mxGeometry x="1700" y="60" width="260" height="170" as="geometry" />
        </mxCell>
        <mxCell id="-Z4l_nvjU3ZCaJv-4ttp-42" value="" style="rounded=0;whiteSpace=wrap;html=1;fillColor=#33FFFF;" vertex="1" parent="WIyWlLk6GJQsqaUBKTNV-1">
          <mxGeometry x="1880" y="135" width="20" height="20" as="geometry" />
        </mxCell>
        <mxCell id="-Z4l_nvjU3ZCaJv-4ttp-46" value="" style="rounded=0;whiteSpace=wrap;html=1;fillColor=#99FF99;" vertex="1" parent="WIyWlLk6GJQsqaUBKTNV-1">
          <mxGeometry x="1880" y="86" width="20" height="20" as="geometry" />
        </mxCell>
        <mxCell id="-Z4l_nvjU3ZCaJv-4ttp-47" value="" style="rounded=0;whiteSpace=wrap;html=1;fillColor=#FF6666;" vertex="1" parent="WIyWlLk6GJQsqaUBKTNV-1">
          <mxGeometry x="1880" y="185" width="20" height="20" as="geometry" />
        </mxCell>
        <mxCell id="-Z4l_nvjU3ZCaJv-4ttp-48" value="Respostes del sòlbot" style="text;html=1;strokeColor=none;fillColor=none;align=center;verticalAlign=middle;whiteSpace=wrap;rounded=0;" vertex="1" parent="WIyWlLk6GJQsqaUBKTNV-1">
          <mxGeometry x="1730" y="86" width="100" height="30" as="geometry" />
        </mxCell>
        <mxCell id="-Z4l_nvjU3ZCaJv-4ttp-49" value="Respostes per part del client" style="text;html=1;strokeColor=none;fillColor=none;align=center;verticalAlign=middle;whiteSpace=wrap;rounded=0;" vertex="1" parent="WIyWlLk6GJQsqaUBKTNV-1">
          <mxGeometry x="1730" y="130" width="100" height="30" as="geometry" />
        </mxCell>
        <mxCell id="-Z4l_nvjU3ZCaJv-4ttp-50" value="Respostes no reconegudes&lt;br&gt;&amp;nbsp;pel chatbot" style="text;html=1;strokeColor=none;fillColor=none;align=center;verticalAlign=middle;whiteSpace=wrap;rounded=0;" vertex="1" parent="WIyWlLk6GJQsqaUBKTNV-1">
          <mxGeometry x="1730" y="180" width="100" height="30" as="geometry" />
        </mxCell>
        <mxCell id="-Z4l_nvjU3ZCaJv-4ttp-51" value="FAQ Doc P5(ns si posarho aqui)" style="rounded=0;whiteSpace=wrap;html=1;fillColor=#33FFFF;" vertex="1" parent="WIyWlLk6GJQsqaUBKTNV-1">
          <mxGeometry x="-450" y="575" width="120" height="60" as="geometry" />
        </mxCell>
        <mxCell id="-Z4l_nvjU3ZCaJv-4ttp-54" style="edgeStyle=orthogonalEdgeStyle;rounded=0;orthogonalLoop=1;jettySize=auto;html=1;exitX=0.5;exitY=0;exitDx=0;exitDy=0;entryX=0;entryY=1;entryDx=0;entryDy=0;" edge="1" parent="WIyWlLk6GJQsqaUBKTNV-1" source="-Z4l_nvjU3ZCaJv-4ttp-53" target="qdfca_HPiDvRjvZuORhi-12">
          <mxGeometry relative="1" as="geometry">
            <Array as="points">
              <mxPoint x="467" y="290" />
              <mxPoint x="696" y="290" />
            </Array>
          </mxGeometry>
        </mxCell>
        <mxCell id="-Z4l_nvjU3ZCaJv-4ttp-53" value="Certificat" style="rounded=1;whiteSpace=wrap;html=1;fontSize=12;glass=0;strokeWidth=1;shadow=0;fillColor=#99FF99;" vertex="1" parent="WIyWlLk6GJQsqaUBKTNV-1">
          <mxGeometry x="412" y="310" width="110" height="40" as="geometry" />
        </mxCell>
        <mxCell id="-Z4l_nvjU3ZCaJv-4ttp-56" style="edgeStyle=orthogonalEdgeStyle;rounded=0;orthogonalLoop=1;jettySize=auto;html=1;exitX=0.5;exitY=0;exitDx=0;exitDy=0;entryX=1;entryY=0.5;entryDx=0;entryDy=0;" edge="1" parent="WIyWlLk6GJQsqaUBKTNV-1" source="-Z4l_nvjU3ZCaJv-4ttp-55" target="qdfca_HPiDvRjvZuORhi-12">
          <mxGeometry relative="1" as="geometry" />
        </mxCell>
        <mxCell id="-Z4l_nvjU3ZCaJv-4ttp-55" value="Fianca + Fiança" style="rounded=1;whiteSpace=wrap;html=1;fontSize=12;glass=0;strokeWidth=1;shadow=0;fillColor=#99FF99;" vertex="1" parent="WIyWlLk6GJQsqaUBKTNV-1">
          <mxGeometry x="1270" y="295" width="110" height="40" as="geometry" />
        </mxCell>
        <mxCell id="-Z4l_nvjU3ZCaJv-4ttp-57" value="Certificat + Fiança" style="rounded=1;whiteSpace=wrap;html=1;fontSize=12;glass=0;strokeWidth=1;shadow=0;fillColor=#99FF99;" vertex="1" parent="WIyWlLk6GJQsqaUBKTNV-1">
          <mxGeometry x="809.25" y="330" width="110" height="40" as="geometry" />
        </mxCell>
        <mxCell id="-Z4l_nvjU3ZCaJv-4ttp-58" style="edgeStyle=orthogonalEdgeStyle;rounded=0;orthogonalLoop=1;jettySize=auto;html=1;exitX=0.5;exitY=0;exitDx=0;exitDy=0;entryX=0.943;entryY=0.642;entryDx=0;entryDy=0;entryPerimeter=0;" edge="1" parent="WIyWlLk6GJQsqaUBKTNV-1" source="-Z4l_nvjU3ZCaJv-4ttp-57" target="qdfca_HPiDvRjvZuORhi-12">
          <mxGeometry relative="1" as="geometry">
            <Array as="points">
              <mxPoint x="864" y="310" />
              <mxPoint x="751" y="310" />
            </Array>
          </mxGeometry>
        </mxCell>
        <mxCell id="-Z4l_nvjU3ZCaJv-4ttp-62" style="edgeStyle=orthogonalEdgeStyle;rounded=0;orthogonalLoop=1;jettySize=auto;html=1;exitX=0.5;exitY=1;exitDx=0;exitDy=0;entryX=0.5;entryY=0;entryDx=0;entryDy=0;" edge="1" parent="WIyWlLk6GJQsqaUBKTNV-1" source="-Z4l_nvjU3ZCaJv-4ttp-60" target="qdfca_HPiDvRjvZuORhi-15">
          <mxGeometry relative="1" as="geometry" />
        </mxCell>
        <mxCell id="-Z4l_nvjU3ZCaJv-4ttp-60" value="Còpia del Contracte" style="rounded=1;whiteSpace=wrap;html=1;fontSize=12;glass=0;strokeWidth=1;shadow=0;fillColor=#99FF99;" vertex="1" parent="WIyWlLk6GJQsqaUBKTNV-1">
          <mxGeometry x="630" y="335" width="110" height="40" as="geometry" />
        </mxCell>
        <mxCell id="-Z4l_nvjU3ZCaJv-4ttp-63" value="FAQ Doc P11" style="rounded=0;whiteSpace=wrap;html=1;fillColor=#33FFFF;" vertex="1" parent="WIyWlLk6GJQsqaUBKTNV-1">
          <mxGeometry x="-330" y="245" width="120" height="60" as="geometry" />
        </mxCell>
        <mxCell id="-Z4l_nvjU3ZCaJv-4ttp-69" style="edgeStyle=orthogonalEdgeStyle;rounded=0;orthogonalLoop=1;jettySize=auto;html=1;exitX=0.5;exitY=1;exitDx=0;exitDy=0;entryX=1;entryY=0.25;entryDx=0;entryDy=0;" edge="1" parent="WIyWlLk6GJQsqaUBKTNV-1" source="-Z4l_nvjU3ZCaJv-4ttp-67" target="qdfca_HPiDvRjvZuORhi-133">
          <mxGeometry relative="1" as="geometry" />
        </mxCell>
        <mxCell id="-Z4l_nvjU3ZCaJv-4ttp-67" value="Nova Fiança" style="rounded=0;whiteSpace=wrap;html=1;fillColor=#99FF99;" vertex="1" parent="WIyWlLk6GJQsqaUBKTNV-1">
          <mxGeometry x="-25" y="655" width="85" height="27.5" as="geometry" />
        </mxCell>
        <mxCell id="-Z4l_nvjU3ZCaJv-4ttp-76" style="edgeStyle=orthogonalEdgeStyle;rounded=0;orthogonalLoop=1;jettySize=auto;html=1;exitX=0.5;exitY=1;exitDx=0;exitDy=0;entryX=0.25;entryY=0;entryDx=0;entryDy=0;" edge="1" parent="WIyWlLk6GJQsqaUBKTNV-1" source="-Z4l_nvjU3ZCaJv-4ttp-73" target="qdfca_HPiDvRjvZuORhi-134">
          <mxGeometry relative="1" as="geometry" />
        </mxCell>
        <mxCell id="-Z4l_nvjU3ZCaJv-4ttp-73" value="FIANÇA ANTERIOR" style="rounded=0;whiteSpace=wrap;html=1;fillColor=#99FF99;" vertex="1" parent="WIyWlLk6GJQsqaUBKTNV-1">
          <mxGeometry x="65" y="602.5" width="85" height="37.5" as="geometry" />
        </mxCell>
      </root>
    </mxGraphModel>
  </diagram>
</mxfile>
